<mxfile host="app.diagrams.net" modified="2020-10-24T09:50:56.734Z" agent="5.0 (Macintosh; Intel Mac OS X 10_13_6) AppleWebKit/537.36 (KHTML, like Gecko) Chrome/85.0.4183.102 Safari/537.36" etag="CJ9nmiAQHJM3UOj48bPA" version="13.8.1" type="github">
  <diagram name="Page-1" id="a7904f86-f2b4-8e86-fa97-74104820619b">
    <mxGraphModel dx="3235" dy="1981" grid="1" gridSize="10" guides="1" tooltips="1" connect="1" arrows="1" fold="1" page="1" pageScale="1" pageWidth="1169" pageHeight="827" background="#ffffff" math="0" shadow="0">
      <root>
        <mxCell id="0" />
        <mxCell id="1" parent="0" />
        <mxCell id="IU5A_lCc43EPzs8Wn4nt-143" value="" style="rounded=0;whiteSpace=wrap;html=1;fontColor=#ffffff;fillColor=#a0522d;opacity=40;strokeColor=#6D1F00;" parent="1" vertex="1">
          <mxGeometry x="570.5" y="210" width="159.5" height="122.5" as="geometry" />
        </mxCell>
        <mxCell id="IU5A_lCc43EPzs8Wn4nt-142" value="" style="rounded=0;whiteSpace=wrap;html=1;fontColor=#ffffff;fillColor=#a0522d;opacity=40;strokeColor=#6D1F00;" parent="1" vertex="1">
          <mxGeometry x="360.5" y="322" width="159" height="145" as="geometry" />
        </mxCell>
        <mxCell id="IU5A_lCc43EPzs8Wn4nt-140" value="" style="rounded=0;whiteSpace=wrap;html=1;fontColor=#ffffff;fillColor=#a0522d;opacity=40;strokeColor=#6D1F00;" parent="1" vertex="1">
          <mxGeometry x="160.5" y="139" width="159" height="269" as="geometry" />
        </mxCell>
        <mxCell id="IU5A_lCc43EPzs8Wn4nt-135" value="" style="rounded=0;whiteSpace=wrap;html=1;fontColor=#ffffff;strokeColor=#A50040;fillColor=#d80073;opacity=40;fontStyle=1" parent="1" vertex="1">
          <mxGeometry x="-214" y="25" width="147" height="116" as="geometry" />
        </mxCell>
        <mxCell id="IU5A_lCc43EPzs8Wn4nt-134" value="" style="rounded=0;whiteSpace=wrap;html=1;fontColor=#ffffff;strokeColor=#A50040;fillColor=#d80073;opacity=40;fontStyle=1" parent="1" vertex="1">
          <mxGeometry x="-415" y="-251" width="150" height="170" as="geometry" />
        </mxCell>
        <mxCell id="IU5A_lCc43EPzs8Wn4nt-133" value="" style="rounded=0;whiteSpace=wrap;html=1;fontColor=#ffffff;strokeColor=#A50040;fillColor=#d80073;opacity=40;fontStyle=1" parent="1" vertex="1">
          <mxGeometry x="-415" y="-458" width="150" height="170" as="geometry" />
        </mxCell>
        <mxCell id="IU5A_lCc43EPzs8Wn4nt-132" value="" style="rounded=0;whiteSpace=wrap;html=1;fontColor=#ffffff;strokeColor=#A50040;fillColor=#d80073;opacity=40;fontStyle=1" parent="1" vertex="1">
          <mxGeometry x="-607" y="-381" width="150" height="320" as="geometry" />
        </mxCell>
        <mxCell id="IU5A_lCc43EPzs8Wn4nt-125" value="" style="rounded=0;whiteSpace=wrap;html=1;fontColor=#ffffff;fillColor=#fa6800;strokeColor=none;opacity=40;" parent="1" vertex="1">
          <mxGeometry x="-209" y="-157" width="160" height="120" as="geometry" />
        </mxCell>
        <mxCell id="IU5A_lCc43EPzs8Wn4nt-117" value="" style="rounded=0;whiteSpace=wrap;html=1;fontColor=#ffffff;fillColor=#6a00ff;opacity=40;strokeColor=none;" parent="1" vertex="1">
          <mxGeometry x="331" y="-69" width="159" height="169" as="geometry" />
        </mxCell>
        <mxCell id="IU5A_lCc43EPzs8Wn4nt-116" value="" style="rounded=0;whiteSpace=wrap;html=1;fontColor=#ffffff;fillColor=#fa6800;strokeColor=none;opacity=40;" parent="1" vertex="1">
          <mxGeometry x="160" y="-418" width="160" height="218" as="geometry" />
        </mxCell>
        <mxCell id="IU5A_lCc43EPzs8Wn4nt-114" value="" style="rounded=0;whiteSpace=wrap;html=1;fontColor=#ffffff;fillColor=#6a00ff;opacity=40;strokeColor=none;" parent="1" vertex="1">
          <mxGeometry x="640" y="-75" width="160" height="170" as="geometry" />
        </mxCell>
        <mxCell id="IU5A_lCc43EPzs8Wn4nt-113" value="" style="rounded=0;whiteSpace=wrap;html=1;fontColor=#ffffff;fillColor=#6a00ff;opacity=40;strokeColor=none;" parent="1" vertex="1">
          <mxGeometry x="-209" y="-583" width="160" height="126" as="geometry" />
        </mxCell>
        <mxCell id="IU5A_lCc43EPzs8Wn4nt-112" value="" style="rounded=0;whiteSpace=wrap;html=1;fontColor=#ffffff;fillColor=#fa6800;strokeColor=none;opacity=40;" parent="1" vertex="1">
          <mxGeometry x="-211" y="-400" width="160" height="120" as="geometry" />
        </mxCell>
        <mxCell id="IU5A_lCc43EPzs8Wn4nt-111" value="" style="rounded=0;whiteSpace=wrap;html=1;fontColor=#ffffff;fillColor=#6a00ff;opacity=40;strokeColor=none;" parent="1" vertex="1">
          <mxGeometry x="160" y="-590" width="480" height="150" as="geometry" />
        </mxCell>
        <mxCell id="IU5A_lCc43EPzs8Wn4nt-110" value="z" style="rounded=0;whiteSpace=wrap;html=1;fontColor=#ffffff;fillColor=#6a00ff;opacity=40;strokeColor=none;" parent="1" vertex="1">
          <mxGeometry x="159" y="-69" width="161" height="120" as="geometry" />
        </mxCell>
        <mxCell id="IU5A_lCc43EPzs8Wn4nt-108" value="" style="rounded=0;whiteSpace=wrap;html=1;fontColor=#ffffff;fillColor=#fa6800;strokeColor=none;opacity=40;" parent="1" vertex="1">
          <mxGeometry x="610" y="-330" width="160" height="209" as="geometry" />
        </mxCell>
        <mxCell id="IU5A_lCc43EPzs8Wn4nt-105" value="" style="rounded=0;whiteSpace=wrap;html=1;fontColor=#ffffff;fillColor=#fa6800;strokeColor=none;opacity=40;fontStyle=1" parent="1" vertex="1">
          <mxGeometry x="851" y="-770" width="170" height="230" as="geometry" />
        </mxCell>
        <mxCell id="IU5A_lCc43EPzs8Wn4nt-104" value="" style="rounded=0;whiteSpace=wrap;html=1;fontColor=#ffffff;fillColor=#fa6800;strokeColor=none;opacity=40;" parent="1" vertex="1">
          <mxGeometry x="691" y="-590" width="160" height="230" as="geometry" />
        </mxCell>
        <mxCell id="IU5A_lCc43EPzs8Wn4nt-103" value="" style="rounded=0;whiteSpace=wrap;html=1;fontColor=#ffffff;fillColor=#fa6800;strokeColor=none;opacity=40;" parent="1" vertex="1">
          <mxGeometry x="340" y="-420" width="160" height="280" as="geometry" />
        </mxCell>
        <mxCell id="IU5A_lCc43EPzs8Wn4nt-99" value="" style="rounded=0;whiteSpace=wrap;html=1;fontColor=#ffffff;fillColor=#fa6800;strokeColor=none;opacity=40;" parent="1" vertex="1">
          <mxGeometry x="-40" y="-290" width="160" height="640" as="geometry" />
        </mxCell>
        <mxCell id="WBZ4sOTp23pTqwXeyS6A-78" style="edgeStyle=elbowEdgeStyle;rounded=0;orthogonalLoop=1;jettySize=auto;html=1;exitX=0;exitY=0.5;exitDx=0;exitDy=0;entryX=1;entryY=0.5;entryDx=0;entryDy=0;startArrow=none;startFill=0;endSize=2;startSize=2;strokeColor=#00CC00;" parent="1" source="WBZ4sOTp23pTqwXeyS6A-72" target="WBZ4sOTp23pTqwXeyS6A-67" edge="1">
          <mxGeometry relative="1" as="geometry" />
        </mxCell>
        <mxCell id="WBZ4sOTp23pTqwXeyS6A-84" style="edgeStyle=elbowEdgeStyle;rounded=0;orthogonalLoop=1;jettySize=auto;html=1;exitX=1;exitY=0.5;exitDx=0;exitDy=0;endArrow=none;endFill=0;startArrow=classic;startFill=1;endSize=2;startSize=2;fontColor=#143642;strokeColor=#FF0080;fillColor=#FAE5C7;sketch=0;" parent="1" source="WBZ4sOTp23pTqwXeyS6A-82" edge="1">
          <mxGeometry relative="1" as="geometry">
            <Array as="points">
              <mxPoint x="-40" y="-23" />
              <mxPoint x="-40" y="-50" />
            </Array>
            <mxPoint x="-30" y="-34" as="targetPoint" />
          </mxGeometry>
        </mxCell>
        <mxCell id="WBZ4sOTp23pTqwXeyS6A-102" style="edgeStyle=elbowEdgeStyle;rounded=0;orthogonalLoop=1;jettySize=auto;html=1;exitX=0;exitY=0.5;exitDx=0;exitDy=0;startArrow=classic;startFill=1;endArrow=none;endFill=0;endSize=2;startSize=2;strokeColor=#FF3333;" parent="1" source="WBZ4sOTp23pTqwXeyS6A-97" edge="1">
          <mxGeometry relative="1" as="geometry">
            <mxPoint x="310" y="-374" as="targetPoint" />
          </mxGeometry>
        </mxCell>
        <mxCell id="WBZ4sOTp23pTqwXeyS6A-80" value="Users_Camps" style="swimlane;fontStyle=0;childLayout=stackLayout;horizontal=1;startSize=26;fillColor=#f5f5f5;horizontalStack=0;resizeParent=1;resizeParentMax=0;resizeLast=0;collapsible=1;marginBottom=0;strokeColor=#666666;fontColor=#333333;" parent="1" vertex="1">
          <mxGeometry x="-200" y="-149" width="140" height="104" as="geometry">
            <mxRectangle x="100" y="60" width="60" height="26" as="alternateBounds" />
          </mxGeometry>
        </mxCell>
        <mxCell id="WBZ4sOTp23pTqwXeyS6A-81" value="id" style="text;strokeColor=#666666;fillColor=#f5f5f5;align=left;verticalAlign=top;spacingLeft=4;spacingRight=4;overflow=hidden;rotatable=0;points=[[0,0.5],[1,0.5]];portConstraint=eastwest;gradientColor=#E6E6E6;" parent="WBZ4sOTp23pTqwXeyS6A-80" vertex="1">
          <mxGeometry y="26" width="140" height="26" as="geometry" />
        </mxCell>
        <mxCell id="WBZ4sOTp23pTqwXeyS6A-83" value="camp_id" style="text;strokeColor=#d6b656;fillColor=#fff2cc;align=left;verticalAlign=top;spacingLeft=4;spacingRight=4;overflow=hidden;rotatable=0;points=[[0,0.5],[1,0.5]];portConstraint=eastwest;gradientColor=#FFF9E3;" parent="WBZ4sOTp23pTqwXeyS6A-80" vertex="1">
          <mxGeometry y="52" width="140" height="26" as="geometry" />
        </mxCell>
        <mxCell id="WBZ4sOTp23pTqwXeyS6A-82" value="user_id" style="text;strokeColor=#d6b656;fillColor=#fff2cc;align=left;verticalAlign=top;spacingLeft=4;spacingRight=4;overflow=hidden;rotatable=0;points=[[0,0.5],[1,0.5]];portConstraint=eastwest;gradientColor=#FFF9E3;" parent="WBZ4sOTp23pTqwXeyS6A-80" vertex="1">
          <mxGeometry y="78" width="140" height="26" as="geometry" />
        </mxCell>
        <mxCell id="WBZ4sOTp23pTqwXeyS6A-86" value="Courses" style="swimlane;fontStyle=0;childLayout=stackLayout;horizontal=1;startSize=26;fillColor=#e51400;horizontalStack=0;resizeParent=1;resizeParentMax=0;resizeLast=0;collapsible=1;marginBottom=0;strokeColor=#B20000;fontColor=#ffffff;" parent="1" vertex="1">
          <mxGeometry x="170" y="-413" width="140" height="206" as="geometry">
            <mxRectangle x="100" y="60" width="60" height="26" as="alternateBounds" />
          </mxGeometry>
        </mxCell>
        <mxCell id="WBZ4sOTp23pTqwXeyS6A-87" value="id" style="text;strokeColor=#666666;fillColor=#f5f5f5;align=left;verticalAlign=top;spacingLeft=4;spacingRight=4;overflow=hidden;rotatable=0;points=[[0,0.5],[1,0.5]];portConstraint=eastwest;gradientColor=#E6E6E6;" parent="WBZ4sOTp23pTqwXeyS6A-86" vertex="1">
          <mxGeometry y="26" width="140" height="26" as="geometry" />
        </mxCell>
        <mxCell id="WBZ4sOTp23pTqwXeyS6A-88" value="name" style="text;strokeColor=none;fillColor=#ffffff;align=left;verticalAlign=top;spacingLeft=4;spacingRight=4;overflow=hidden;rotatable=0;points=[[0,0.5],[1,0.5]];portConstraint=eastwest;" parent="WBZ4sOTp23pTqwXeyS6A-86" vertex="1">
          <mxGeometry y="52" width="140" height="26" as="geometry" />
        </mxCell>
        <mxCell id="WBZ4sOTp23pTqwXeyS6A-89" value="edition" style="text;strokeColor=none;fillColor=#ffffff;align=left;verticalAlign=top;spacingLeft=4;spacingRight=4;overflow=hidden;rotatable=0;points=[[0,0.5],[1,0.5]];portConstraint=eastwest;" parent="WBZ4sOTp23pTqwXeyS6A-86" vertex="1">
          <mxGeometry y="78" width="140" height="26" as="geometry" />
        </mxCell>
        <mxCell id="WBZ4sOTp23pTqwXeyS6A-92" value="description" style="text;strokeColor=none;fillColor=#ffffff;align=left;verticalAlign=top;spacingLeft=4;spacingRight=4;overflow=hidden;rotatable=0;points=[[0,0.5],[1,0.5]];portConstraint=eastwest;" parent="WBZ4sOTp23pTqwXeyS6A-86" vertex="1">
          <mxGeometry y="104" width="140" height="24" as="geometry" />
        </mxCell>
        <mxCell id="WBZ4sOTp23pTqwXeyS6A-93" value="image" style="text;strokeColor=none;fillColor=#ffffff;align=left;verticalAlign=top;spacingLeft=4;spacingRight=4;overflow=hidden;rotatable=0;points=[[0,0.5],[1,0.5]];portConstraint=eastwest;" parent="WBZ4sOTp23pTqwXeyS6A-86" vertex="1">
          <mxGeometry y="128" width="140" height="26" as="geometry" />
        </mxCell>
        <mxCell id="OMGFsxL6FJG4bvum0Mdm-6" value="target" style="text;strokeColor=none;fillColor=#ffffff;align=left;verticalAlign=top;spacingLeft=4;spacingRight=4;overflow=hidden;rotatable=0;points=[[0,0.5],[1,0.5]];portConstraint=eastwest;" parent="WBZ4sOTp23pTqwXeyS6A-86" vertex="1">
          <mxGeometry y="154" width="140" height="26" as="geometry" />
        </mxCell>
        <mxCell id="WYEmnUTY5Pb3nIBCFr9V-95" value="monitor_id" style="text;strokeColor=#d6b656;fillColor=#fff2cc;align=left;verticalAlign=top;spacingLeft=4;spacingRight=4;overflow=hidden;rotatable=0;points=[[0,0.5],[1,0.5]];portConstraint=eastwest;gradientColor=#ffd966;" parent="WBZ4sOTp23pTqwXeyS6A-86" vertex="1">
          <mxGeometry y="180" width="140" height="26" as="geometry" />
        </mxCell>
        <mxCell id="WBZ4sOTp23pTqwXeyS6A-115" value="Exams" style="swimlane;fontStyle=0;childLayout=stackLayout;horizontal=1;startSize=26;fillColor=#f8cecc;horizontalStack=0;resizeParent=1;resizeParentMax=0;resizeLast=0;collapsible=1;marginBottom=0;strokeColor=#b85450;" parent="1" vertex="1">
          <mxGeometry x="170" y="-580" width="140" height="128" as="geometry">
            <mxRectangle x="100" y="60" width="60" height="26" as="alternateBounds" />
          </mxGeometry>
        </mxCell>
        <mxCell id="WBZ4sOTp23pTqwXeyS6A-116" value="id" style="text;strokeColor=#666666;fillColor=#f5f5f5;align=left;verticalAlign=top;spacingLeft=4;spacingRight=4;overflow=hidden;rotatable=0;points=[[0,0.5],[1,0.5]];portConstraint=eastwest;gradientColor=#E6E6E6;" parent="WBZ4sOTp23pTqwXeyS6A-115" vertex="1">
          <mxGeometry y="26" width="140" height="26" as="geometry" />
        </mxCell>
        <mxCell id="WBZ4sOTp23pTqwXeyS6A-117" value="name" style="text;strokeColor=none;fillColor=#ffffff;align=left;verticalAlign=top;spacingLeft=4;spacingRight=4;overflow=hidden;rotatable=0;points=[[0,0.5],[1,0.5]];portConstraint=eastwest;" parent="WBZ4sOTp23pTqwXeyS6A-115" vertex="1">
          <mxGeometry y="52" width="140" height="26" as="geometry" />
        </mxCell>
        <mxCell id="WBZ4sOTp23pTqwXeyS6A-118" value="description" style="text;strokeColor=none;fillColor=#ffffff;align=left;verticalAlign=top;spacingLeft=4;spacingRight=4;overflow=hidden;rotatable=0;points=[[0,0.5],[1,0.5]];portConstraint=eastwest;" parent="WBZ4sOTp23pTqwXeyS6A-115" vertex="1">
          <mxGeometry y="78" width="140" height="24" as="geometry" />
        </mxCell>
        <mxCell id="WBZ4sOTp23pTqwXeyS6A-119" value="course_id" style="text;strokeColor=#d6b656;fillColor=#fff2cc;align=left;verticalAlign=top;spacingLeft=4;spacingRight=4;overflow=hidden;rotatable=0;points=[[0,0.5],[1,0.5]];portConstraint=eastwest;gradientColor=#ffd966;" parent="WBZ4sOTp23pTqwXeyS6A-115" vertex="1">
          <mxGeometry y="102" width="140" height="26" as="geometry" />
        </mxCell>
        <mxCell id="WBZ4sOTp23pTqwXeyS6A-123" style="edgeStyle=none;rounded=0;orthogonalLoop=1;jettySize=auto;html=1;exitX=0;exitY=0.5;exitDx=0;exitDy=0;startArrow=classic;startFill=1;endArrow=none;endFill=0;entryX=-0.008;entryY=0.159;entryDx=0;entryDy=0;entryPerimeter=0;endSize=2;startSize=2;strokeColor=#FF0000;" parent="1" source="WBZ4sOTp23pTqwXeyS6A-119" target="WBZ4sOTp23pTqwXeyS6A-87" edge="1">
          <mxGeometry relative="1" as="geometry">
            <Array as="points">
              <mxPoint x="130" y="-465" />
              <mxPoint x="130" y="-420" />
              <mxPoint x="130" y="-383" />
            </Array>
            <mxPoint x="167" y="-383" as="targetPoint" />
          </mxGeometry>
        </mxCell>
        <mxCell id="WBZ4sOTp23pTqwXeyS6A-124" value="Questions" style="swimlane;fontStyle=0;childLayout=stackLayout;horizontal=1;startSize=26;fillColor=#f8cecc;horizontalStack=0;resizeParent=1;resizeParentMax=0;resizeLast=0;collapsible=1;marginBottom=0;strokeColor=#b85450;" parent="1" vertex="1">
          <mxGeometry x="330" y="-580" width="140" height="128" as="geometry">
            <mxRectangle x="100" y="60" width="60" height="26" as="alternateBounds" />
          </mxGeometry>
        </mxCell>
        <mxCell id="WBZ4sOTp23pTqwXeyS6A-125" value="id" style="text;strokeColor=#666666;fillColor=#f5f5f5;align=left;verticalAlign=top;spacingLeft=4;spacingRight=4;overflow=hidden;rotatable=0;points=[[0,0.5],[1,0.5]];portConstraint=eastwest;gradientColor=#E6E6E6;" parent="WBZ4sOTp23pTqwXeyS6A-124" vertex="1">
          <mxGeometry y="26" width="140" height="26" as="geometry" />
        </mxCell>
        <mxCell id="WBZ4sOTp23pTqwXeyS6A-126" value="title" style="text;strokeColor=none;fillColor=#ffffff;align=left;verticalAlign=top;spacingLeft=4;spacingRight=4;overflow=hidden;rotatable=0;points=[[0,0.5],[1,0.5]];portConstraint=eastwest;" parent="WBZ4sOTp23pTqwXeyS6A-124" vertex="1">
          <mxGeometry y="52" width="140" height="26" as="geometry" />
        </mxCell>
        <mxCell id="WBZ4sOTp23pTqwXeyS6A-127" value="description" style="text;strokeColor=none;fillColor=#ffffff;align=left;verticalAlign=top;spacingLeft=4;spacingRight=4;overflow=hidden;rotatable=0;points=[[0,0.5],[1,0.5]];portConstraint=eastwest;" parent="WBZ4sOTp23pTqwXeyS6A-124" vertex="1">
          <mxGeometry y="78" width="140" height="24" as="geometry" />
        </mxCell>
        <mxCell id="WBZ4sOTp23pTqwXeyS6A-128" value="exam_id" style="text;strokeColor=#d6b656;fillColor=#fff2cc;align=left;verticalAlign=top;spacingLeft=4;spacingRight=4;overflow=hidden;rotatable=0;points=[[0,0.5],[1,0.5]];portConstraint=eastwest;gradientColor=#ffd966;" parent="WBZ4sOTp23pTqwXeyS6A-124" vertex="1">
          <mxGeometry y="102" width="140" height="26" as="geometry" />
        </mxCell>
        <mxCell id="WBZ4sOTp23pTqwXeyS6A-131" value="Answers" style="swimlane;fontStyle=0;childLayout=stackLayout;horizontal=1;startSize=26;fillColor=#f8cecc;horizontalStack=0;resizeParent=1;resizeParentMax=0;resizeLast=0;collapsible=1;marginBottom=0;strokeColor=#b85450;" parent="1" vertex="1">
          <mxGeometry x="490" y="-580" width="140" height="128" as="geometry">
            <mxRectangle x="100" y="60" width="60" height="26" as="alternateBounds" />
          </mxGeometry>
        </mxCell>
        <mxCell id="WBZ4sOTp23pTqwXeyS6A-132" value="id" style="text;strokeColor=#666666;fillColor=#f5f5f5;align=left;verticalAlign=top;spacingLeft=4;spacingRight=4;overflow=hidden;rotatable=0;points=[[0,0.5],[1,0.5]];portConstraint=eastwest;gradientColor=#E6E6E6;" parent="WBZ4sOTp23pTqwXeyS6A-131" vertex="1">
          <mxGeometry y="26" width="140" height="26" as="geometry" />
        </mxCell>
        <mxCell id="WBZ4sOTp23pTqwXeyS6A-133" value="text" style="text;strokeColor=none;fillColor=#ffffff;align=left;verticalAlign=top;spacingLeft=4;spacingRight=4;overflow=hidden;rotatable=0;points=[[0,0.5],[1,0.5]];portConstraint=eastwest;" parent="WBZ4sOTp23pTqwXeyS6A-131" vertex="1">
          <mxGeometry y="52" width="140" height="26" as="geometry" />
        </mxCell>
        <mxCell id="WBZ4sOTp23pTqwXeyS6A-135" value="is_correct" style="text;strokeColor=none;fillColor=#ffffff;align=left;verticalAlign=top;spacingLeft=4;spacingRight=4;overflow=hidden;rotatable=0;points=[[0,0.5],[1,0.5]];portConstraint=eastwest;" parent="WBZ4sOTp23pTqwXeyS6A-131" vertex="1">
          <mxGeometry y="78" width="140" height="24" as="geometry" />
        </mxCell>
        <mxCell id="WBZ4sOTp23pTqwXeyS6A-136" value="question_id" style="text;strokeColor=#d6b656;fillColor=#fff2cc;align=left;verticalAlign=top;spacingLeft=4;spacingRight=4;overflow=hidden;rotatable=0;points=[[0,0.5],[1,0.5]];portConstraint=eastwest;gradientColor=#ffd966;" parent="WBZ4sOTp23pTqwXeyS6A-131" vertex="1">
          <mxGeometry y="102" width="140" height="26" as="geometry" />
        </mxCell>
        <mxCell id="ck8U2gpx1ueE78EYPkBc-3" style="rounded=0;orthogonalLoop=1;jettySize=auto;html=1;exitX=0;exitY=0.5;exitDx=0;exitDy=0;entryX=1;entryY=0.5;entryDx=0;entryDy=0;startArrow=classic;startFill=1;endArrow=none;endFill=0;endSize=2;startSize=2;strokeColor=#FF9999;" parent="1" source="WBZ4sOTp23pTqwXeyS6A-136" target="WBZ4sOTp23pTqwXeyS6A-125" edge="1">
          <mxGeometry relative="1" as="geometry" />
        </mxCell>
        <mxCell id="WYEmnUTY5Pb3nIBCFr9V-13" style="edgeStyle=orthogonalEdgeStyle;rounded=0;orthogonalLoop=1;jettySize=auto;html=1;entryX=-0.002;entryY=0.286;entryDx=0;entryDy=0;startArrow=none;startFill=0;endSize=2;startSize=2;strokeColor=#FF3333;entryPerimeter=0;" parent="1" target="bOIeK9XrqMuyP5t5MUJa-1" edge="1">
          <mxGeometry relative="1" as="geometry">
            <mxPoint x="312" y="-380" as="sourcePoint" />
            <Array as="points">
              <mxPoint x="320" y="-380" />
              <mxPoint x="320" y="-110" />
              <mxPoint x="510" y="-110" />
              <mxPoint x="510" y="-130" />
              <mxPoint x="570" y="-130" />
              <mxPoint x="570" y="-159" />
              <mxPoint x="620" y="-159" />
            </Array>
            <mxPoint x="520" y="-345" as="targetPoint" />
          </mxGeometry>
        </mxCell>
        <mxCell id="WYEmnUTY5Pb3nIBCFr9V-23" style="rounded=0;orthogonalLoop=1;jettySize=auto;html=1;exitX=1;exitY=0.5;exitDx=0;exitDy=0;startArrow=none;startFill=0;endArrow=classic;endFill=1;endSize=2;startSize=2;strokeColor=#FF0080;entryX=-0.002;entryY=0.099;entryDx=0;entryDy=0;entryPerimeter=0;edgeStyle=orthogonalEdgeStyle;" parent="1" source="WBZ4sOTp23pTqwXeyS6A-95" target="bOIeK9XrqMuyP5t5MUJa-1" edge="1">
          <mxGeometry relative="1" as="geometry">
            <mxPoint x="700" y="-120" as="targetPoint" />
          </mxGeometry>
        </mxCell>
        <mxCell id="WYEmnUTY5Pb3nIBCFr9V-29" style="edgeStyle=orthogonalEdgeStyle;rounded=0;orthogonalLoop=1;jettySize=auto;html=1;exitX=1;exitY=0.5;exitDx=0;exitDy=0;startArrow=none;startFill=0;endArrow=classic;endFill=1;strokeColor=#FF8000;endSize=2;startSize=2;entryX=-0.002;entryY=0.629;entryDx=0;entryDy=0;entryPerimeter=0;" parent="1" edge="1" target="bOIeK9XrqMuyP5t5MUJa-1">
          <mxGeometry relative="1" as="geometry">
            <mxPoint x="110" y="-244" as="sourcePoint" />
            <mxPoint x="520" y="-102" as="targetPoint" />
            <Array as="points">
              <mxPoint x="130" y="-244" />
              <mxPoint x="130" y="-90" />
              <mxPoint x="510" y="-90" />
              <mxPoint x="510" y="-120" />
              <mxPoint x="590" y="-120" />
              <mxPoint x="590" y="-150" />
              <mxPoint x="620" y="-150" />
            </Array>
          </mxGeometry>
        </mxCell>
        <mxCell id="WBZ4sOTp23pTqwXeyS6A-51" value="Camps" style="swimlane;fontStyle=0;childLayout=stackLayout;horizontal=1;startSize=26;fillColor=#f0a30a;horizontalStack=0;resizeParent=1;resizeParentMax=0;resizeLast=0;collapsible=1;marginBottom=0;strokeColor=#BD7000;fontColor=#ffffff;" parent="1" vertex="1">
          <mxGeometry x="-30" y="-281" width="140" height="206" as="geometry">
            <mxRectangle x="100" y="60" width="60" height="26" as="alternateBounds" />
          </mxGeometry>
        </mxCell>
        <mxCell id="WBZ4sOTp23pTqwXeyS6A-52" value="id" style="text;strokeColor=#666666;fillColor=#f5f5f5;align=left;verticalAlign=top;spacingLeft=4;spacingRight=4;overflow=hidden;rotatable=0;points=[[0,0.5],[1,0.5]];portConstraint=eastwest;gradientColor=#E6E6E6;" parent="WBZ4sOTp23pTqwXeyS6A-51" vertex="1">
          <mxGeometry y="26" width="140" height="26" as="geometry" />
        </mxCell>
        <mxCell id="WBZ4sOTp23pTqwXeyS6A-59" value="name" style="text;strokeColor=none;fillColor=#ffffff;align=left;verticalAlign=top;spacingLeft=4;spacingRight=4;overflow=hidden;rotatable=0;points=[[0,0.5],[1,0.5]];portConstraint=eastwest;" parent="WBZ4sOTp23pTqwXeyS6A-51" vertex="1">
          <mxGeometry y="52" width="140" height="26" as="geometry" />
        </mxCell>
        <mxCell id="WBZ4sOTp23pTqwXeyS6A-53" value="edition" style="text;strokeColor=none;fillColor=#ffffff;align=left;verticalAlign=top;spacingLeft=4;spacingRight=4;overflow=hidden;rotatable=0;points=[[0,0.5],[1,0.5]];portConstraint=eastwest;" parent="WBZ4sOTp23pTqwXeyS6A-51" vertex="1">
          <mxGeometry y="78" width="140" height="26" as="geometry" />
        </mxCell>
        <mxCell id="WBZ4sOTp23pTqwXeyS6A-60" value="date_start" style="text;strokeColor=none;fillColor=#ffffff;align=left;verticalAlign=top;spacingLeft=4;spacingRight=4;overflow=hidden;rotatable=0;points=[[0,0.5],[1,0.5]];portConstraint=eastwest;" parent="WBZ4sOTp23pTqwXeyS6A-51" vertex="1">
          <mxGeometry y="104" width="140" height="26" as="geometry" />
        </mxCell>
        <mxCell id="WBZ4sOTp23pTqwXeyS6A-61" value="date_end" style="text;strokeColor=none;fillColor=#ffffff;align=left;verticalAlign=top;spacingLeft=4;spacingRight=4;overflow=hidden;rotatable=0;points=[[0,0.5],[1,0.5]];portConstraint=eastwest;" parent="WBZ4sOTp23pTqwXeyS6A-51" vertex="1">
          <mxGeometry y="130" width="140" height="26" as="geometry" />
        </mxCell>
        <mxCell id="WBZ4sOTp23pTqwXeyS6A-63" value="description" style="text;strokeColor=none;fillColor=#ffffff;align=left;verticalAlign=top;spacingLeft=4;spacingRight=4;overflow=hidden;rotatable=0;points=[[0,0.5],[1,0.5]];portConstraint=eastwest;" parent="WBZ4sOTp23pTqwXeyS6A-51" vertex="1">
          <mxGeometry y="156" width="140" height="24" as="geometry" />
        </mxCell>
        <mxCell id="WYEmnUTY5Pb3nIBCFr9V-30" value="image" style="text;strokeColor=none;fillColor=#ffffff;align=left;verticalAlign=top;spacingLeft=4;spacingRight=4;overflow=hidden;rotatable=0;points=[[0,0.5],[1,0.5]];portConstraint=eastwest;" parent="WBZ4sOTp23pTqwXeyS6A-51" vertex="1">
          <mxGeometry y="180" width="140" height="26" as="geometry" />
        </mxCell>
        <mxCell id="WYEmnUTY5Pb3nIBCFr9V-40" style="edgeStyle=orthogonalEdgeStyle;rounded=0;orthogonalLoop=1;jettySize=auto;html=1;startArrow=classic;startFill=1;endArrow=none;endFill=0;endSize=2;startSize=2;entryX=0.005;entryY=0.205;entryDx=0;entryDy=0;entryPerimeter=0;exitX=0.002;exitY=0.641;exitDx=0;exitDy=0;exitPerimeter=0;fontColor=#143642;strokeColor=#FF0080;fillColor=#FAE5C7;sketch=0;" parent="1" source="WYEmnUTY5Pb3nIBCFr9V-34" target="WBZ4sOTp23pTqwXeyS6A-2" edge="1">
          <mxGeometry relative="1" as="geometry">
            <mxPoint x="-203" y="-331" as="sourcePoint" />
            <mxPoint x="-33" y="-31" as="targetPoint" />
            <Array as="points">
              <mxPoint x="-213" y="-323" />
              <mxPoint x="-213" y="-31" />
            </Array>
          </mxGeometry>
        </mxCell>
        <mxCell id="WYEmnUTY5Pb3nIBCFr9V-41" style="edgeStyle=orthogonalEdgeStyle;rounded=0;orthogonalLoop=1;jettySize=auto;html=1;exitX=1;exitY=0.5;exitDx=0;exitDy=0;entryX=0;entryY=0.5;entryDx=0;entryDy=0;startArrow=classic;startFill=1;endSize=2;startSize=2;endArrow=none;endFill=0;strokeColor=#FF0000;" parent="1" source="OMGFsxL6FJG4bvum0Mdm-20" target="WBZ4sOTp23pTqwXeyS6A-95" edge="1">
          <mxGeometry relative="1" as="geometry">
            <mxPoint x="340" y="-310" as="targetPoint" />
            <Array as="points">
              <mxPoint x="140" y="-330" />
              <mxPoint x="140" y="-430" />
              <mxPoint x="340" y="-430" />
              <mxPoint x="340" y="-371" />
            </Array>
          </mxGeometry>
        </mxCell>
        <mxCell id="WYEmnUTY5Pb3nIBCFr9V-48" style="edgeStyle=orthogonalEdgeStyle;rounded=0;orthogonalLoop=1;jettySize=auto;html=1;exitX=1;exitY=0.5;exitDx=0;exitDy=0;entryX=0;entryY=0.5;entryDx=0;entryDy=0;startArrow=classic;startFill=1;endArrow=none;endFill=0;endSize=2;startSize=2;strokeColor=#FF6666;" parent="1" source="WYEmnUTY5Pb3nIBCFr9V-45" target="WBZ4sOTp23pTqwXeyS6A-116" edge="1">
          <mxGeometry relative="1" as="geometry" />
        </mxCell>
        <mxCell id="WYEmnUTY5Pb3nIBCFr9V-49" style="edgeStyle=orthogonalEdgeStyle;rounded=0;orthogonalLoop=1;jettySize=auto;html=1;exitX=0;exitY=0.5;exitDx=0;exitDy=0;startArrow=classic;startFill=1;endArrow=none;endFill=0;endSize=2;startSize=2;fontColor=#143642;strokeColor=#FF0080;fillColor=#FAE5C7;sketch=0;" parent="1" source="WYEmnUTY5Pb3nIBCFr9V-44" edge="1">
          <mxGeometry relative="1" as="geometry">
            <mxPoint x="-30" y="-21" as="targetPoint" />
            <Array as="points">
              <mxPoint x="-240" y="-509" />
              <mxPoint x="-240" y="-21" />
              <mxPoint x="-30" y="-21" />
            </Array>
          </mxGeometry>
        </mxCell>
        <mxCell id="WYEmnUTY5Pb3nIBCFr9V-42" value="User_Exams" style="swimlane;fontStyle=0;childLayout=stackLayout;horizontal=1;startSize=26;fillColor=#f5f5f5;horizontalStack=0;resizeParent=1;resizeParentMax=0;resizeLast=0;collapsible=1;marginBottom=0;strokeColor=#666666;fontColor=#333333;" parent="1" vertex="1">
          <mxGeometry x="-200" y="-574" width="140" height="104" as="geometry">
            <mxRectangle x="100" y="60" width="60" height="26" as="alternateBounds" />
          </mxGeometry>
        </mxCell>
        <mxCell id="WYEmnUTY5Pb3nIBCFr9V-43" value="id" style="text;strokeColor=#666666;fillColor=#f5f5f5;align=left;verticalAlign=top;spacingLeft=4;spacingRight=4;overflow=hidden;rotatable=0;points=[[0,0.5],[1,0.5]];portConstraint=eastwest;gradientColor=#E6E6E6;" parent="WYEmnUTY5Pb3nIBCFr9V-42" vertex="1">
          <mxGeometry y="26" width="140" height="26" as="geometry" />
        </mxCell>
        <mxCell id="WYEmnUTY5Pb3nIBCFr9V-44" value="user_id" style="text;strokeColor=#d6b656;fillColor=#fff2cc;align=left;verticalAlign=top;spacingLeft=4;spacingRight=4;overflow=hidden;rotatable=0;points=[[0,0.5],[1,0.5]];portConstraint=eastwest;gradientColor=#FFF9E3;" parent="WYEmnUTY5Pb3nIBCFr9V-42" vertex="1">
          <mxGeometry y="52" width="140" height="26" as="geometry" />
        </mxCell>
        <mxCell id="WYEmnUTY5Pb3nIBCFr9V-45" value="exam_id" style="text;strokeColor=#d6b656;fillColor=#fff2cc;align=left;verticalAlign=top;spacingLeft=4;spacingRight=4;overflow=hidden;rotatable=0;points=[[0,0.5],[1,0.5]];portConstraint=eastwest;gradientColor=#FFF9E3;" parent="WYEmnUTY5Pb3nIBCFr9V-42" vertex="1">
          <mxGeometry y="78" width="140" height="26" as="geometry" />
        </mxCell>
        <mxCell id="WYEmnUTY5Pb3nIBCFr9V-61" style="edgeStyle=orthogonalEdgeStyle;rounded=0;orthogonalLoop=1;jettySize=auto;html=1;exitX=0;exitY=0.5;exitDx=0;exitDy=0;entryX=0.996;entryY=0.208;entryDx=0;entryDy=0;startArrow=classic;startFill=1;endArrow=none;endFill=0;endSize=2;startSize=2;strokeColor=#FF0080;entryPerimeter=0;" parent="1" source="WYEmnUTY5Pb3nIBCFr9V-60" target="WBZ4sOTp23pTqwXeyS6A-95" edge="1">
          <mxGeometry relative="1" as="geometry">
            <mxPoint x="510" y="-434" as="targetPoint" />
            <Array as="points">
              <mxPoint x="500" y="-410" />
              <mxPoint x="500" y="-379" />
              <mxPoint x="489" y="-379" />
            </Array>
          </mxGeometry>
        </mxCell>
        <mxCell id="WYEmnUTY5Pb3nIBCFr9V-64" style="edgeStyle=orthogonalEdgeStyle;rounded=0;orthogonalLoop=1;jettySize=auto;html=1;exitX=1;exitY=0.5;exitDx=0;exitDy=0;endArrow=none;endFill=0;startArrow=classic;startFill=1;entryX=1.005;entryY=0.723;entryDx=0;entryDy=0;entryPerimeter=0;endSize=2;startSize=2;strokeColor=#FF8000;" parent="1" source="WBZ4sOTp23pTqwXeyS6A-74" target="WBZ4sOTp23pTqwXeyS6A-52" edge="1">
          <mxGeometry relative="1" as="geometry">
            <mxPoint x="120" y="-230" as="targetPoint" />
            <Array as="points">
              <mxPoint x="500" y="80" />
              <mxPoint x="500" y="-80" />
              <mxPoint x="120" y="-80" />
              <mxPoint x="120" y="-236" />
            </Array>
          </mxGeometry>
        </mxCell>
        <mxCell id="WYEmnUTY5Pb3nIBCFr9V-73" value="" style="edgeStyle=orthogonalEdgeStyle;rounded=0;orthogonalLoop=1;jettySize=auto;html=1;startArrow=classic;startFill=1;endArrow=none;endFill=0;endSize=2;startSize=2;fontColor=#143642;strokeColor=#FF0080;fillColor=#FAE5C7;sketch=0;exitX=0;exitY=0.5;exitDx=0;exitDy=0;" parent="1" edge="1" source="WYEmnUTY5Pb3nIBCFr9V-84">
          <mxGeometry relative="1" as="geometry">
            <mxPoint x="-30" y="-24" as="targetPoint" />
            <mxPoint x="830" y="-620" as="sourcePoint" />
            <Array as="points">
              <mxPoint x="840" y="-588" />
              <mxPoint x="840" y="-640" />
              <mxPoint x="-230" y="-640" />
              <mxPoint x="-230" y="-24" />
            </Array>
          </mxGeometry>
        </mxCell>
        <mxCell id="WYEmnUTY5Pb3nIBCFr9V-87" style="edgeStyle=orthogonalEdgeStyle;rounded=0;orthogonalLoop=1;jettySize=auto;html=1;exitX=0;exitY=0.5;exitDx=0;exitDy=0;entryX=0.996;entryY=0.277;entryDx=0;entryDy=0;startArrow=classic;startFill=1;endArrow=none;endFill=0;entryPerimeter=0;endSize=2;startSize=2;strokeColor=#3399FF;" parent="1" source="WYEmnUTY5Pb3nIBCFr9V-85" target="WYEmnUTY5Pb3nIBCFr9V-51" edge="1">
          <mxGeometry relative="1" as="geometry">
            <mxPoint x="872.9999999999995" y="-590" as="sourcePoint" />
            <mxPoint x="841" y="-535" as="targetPoint" />
            <Array as="points">
              <mxPoint x="854" y="-564" />
              <mxPoint x="854" y="-541" />
            </Array>
          </mxGeometry>
        </mxCell>
        <mxCell id="WYEmnUTY5Pb3nIBCFr9V-88" style="edgeStyle=orthogonalEdgeStyle;rounded=0;orthogonalLoop=1;jettySize=auto;html=1;startArrow=classic;startFill=1;endArrow=none;endFill=0;endSize=2;startSize=2;entryX=0.993;entryY=0.728;entryDx=0;entryDy=0;entryPerimeter=0;exitX=1.003;exitY=0.643;exitDx=0;exitDy=0;exitPerimeter=0;fontColor=#143642;strokeColor=#FF0080;fillColor=#FAE5C7;sketch=0;" parent="1" source="WYEmnUTY5Pb3nIBCFr9V-84" target="WBZ4sOTp23pTqwXeyS6A-2" edge="1">
          <mxGeometry relative="1" as="geometry">
            <mxPoint x="110" y="-14" as="targetPoint" />
            <mxPoint x="1006" y="-610" as="sourcePoint" />
            <Array as="points">
              <mxPoint x="1060" y="-585" />
              <mxPoint x="1060" y="130" />
              <mxPoint x="140" y="130" />
              <mxPoint x="140" y="-17" />
            </Array>
          </mxGeometry>
        </mxCell>
        <mxCell id="WBZ4sOTp23pTqwXeyS6A-71" value="Teams" style="swimlane;fontStyle=0;childLayout=stackLayout;horizontal=1;startSize=26;fillColor=#60a917;horizontalStack=0;resizeParent=1;resizeParentMax=0;resizeLast=0;collapsible=1;marginBottom=0;strokeColor=#2D7600;fontColor=#ffffff;" parent="1" vertex="1">
          <mxGeometry x="341" y="-61" width="140" height="154" as="geometry">
            <mxRectangle x="100" y="60" width="60" height="26" as="alternateBounds" />
          </mxGeometry>
        </mxCell>
        <mxCell id="WBZ4sOTp23pTqwXeyS6A-72" value="id" style="text;strokeColor=#666666;fillColor=#f5f5f5;align=left;verticalAlign=top;spacingLeft=4;spacingRight=4;overflow=hidden;rotatable=0;points=[[0,0.5],[1,0.5]];portConstraint=eastwest;gradientColor=#E6E6E6;" parent="WBZ4sOTp23pTqwXeyS6A-71" vertex="1">
          <mxGeometry y="26" width="140" height="26" as="geometry" />
        </mxCell>
        <mxCell id="WBZ4sOTp23pTqwXeyS6A-73" value="name" style="text;strokeColor=none;fillColor=#ffffff;align=left;verticalAlign=top;spacingLeft=4;spacingRight=4;overflow=hidden;rotatable=0;points=[[0,0.5],[1,0.5]];portConstraint=eastwest;" parent="WBZ4sOTp23pTqwXeyS6A-71" vertex="1">
          <mxGeometry y="52" width="140" height="26" as="geometry" />
        </mxCell>
        <mxCell id="WBZ4sOTp23pTqwXeyS6A-75" value="avatar" style="text;strokeColor=none;fillColor=#ffffff;align=left;verticalAlign=top;spacingLeft=4;spacingRight=4;overflow=hidden;rotatable=0;points=[[0,0.5],[1,0.5]];portConstraint=eastwest;" parent="WBZ4sOTp23pTqwXeyS6A-71" vertex="1">
          <mxGeometry y="78" width="140" height="26" as="geometry" />
        </mxCell>
        <mxCell id="WBZ4sOTp23pTqwXeyS6A-77" value="description" style="text;strokeColor=none;fillColor=#ffffff;align=left;verticalAlign=top;spacingLeft=4;spacingRight=4;overflow=hidden;rotatable=0;points=[[0,0.5],[1,0.5]];portConstraint=eastwest;" parent="WBZ4sOTp23pTqwXeyS6A-71" vertex="1">
          <mxGeometry y="104" width="140" height="24" as="geometry" />
        </mxCell>
        <mxCell id="WBZ4sOTp23pTqwXeyS6A-74" value="camp_id" style="text;strokeColor=#d6b656;fillColor=#fff2cc;align=left;verticalAlign=top;spacingLeft=4;spacingRight=4;overflow=hidden;rotatable=0;points=[[0,0.5],[1,0.5]];portConstraint=eastwest;gradientColor=#ffd966;" parent="WBZ4sOTp23pTqwXeyS6A-71" vertex="1">
          <mxGeometry y="128" width="140" height="26" as="geometry" />
        </mxCell>
        <mxCell id="WBZ4sOTp23pTqwXeyS6A-64" value="Users_Teams" style="swimlane;fontStyle=0;childLayout=stackLayout;horizontal=1;startSize=26;fillColor=#eeeeee;horizontalStack=0;resizeParent=1;resizeParentMax=0;resizeLast=0;collapsible=1;marginBottom=0;strokeColor=#36393d;" parent="1" vertex="1">
          <mxGeometry x="170" y="-61" width="140" height="104" as="geometry">
            <mxRectangle x="100" y="60" width="60" height="26" as="alternateBounds" />
          </mxGeometry>
        </mxCell>
        <mxCell id="WBZ4sOTp23pTqwXeyS6A-65" value="id" style="text;strokeColor=#666666;fillColor=#f5f5f5;align=left;verticalAlign=top;spacingLeft=4;spacingRight=4;overflow=hidden;rotatable=0;points=[[0,0.5],[1,0.5]];portConstraint=eastwest;gradientColor=#E6E6E6;" parent="WBZ4sOTp23pTqwXeyS6A-64" vertex="1">
          <mxGeometry y="26" width="140" height="26" as="geometry" />
        </mxCell>
        <mxCell id="WBZ4sOTp23pTqwXeyS6A-66" value="user_id" style="text;strokeColor=#d6b656;fillColor=#fff2cc;align=left;verticalAlign=top;spacingLeft=4;spacingRight=4;overflow=hidden;rotatable=0;points=[[0,0.5],[1,0.5]];portConstraint=eastwest;gradientColor=#FFF9E3;" parent="WBZ4sOTp23pTqwXeyS6A-64" vertex="1">
          <mxGeometry y="52" width="140" height="26" as="geometry" />
        </mxCell>
        <mxCell id="WBZ4sOTp23pTqwXeyS6A-67" value="team_id" style="text;strokeColor=#d6b656;fillColor=#fff2cc;align=left;verticalAlign=top;spacingLeft=4;spacingRight=4;overflow=hidden;rotatable=0;points=[[0,0.5],[1,0.5]];portConstraint=eastwest;gradientColor=#FFF9E3;" parent="WBZ4sOTp23pTqwXeyS6A-64" vertex="1">
          <mxGeometry y="78" width="140" height="26" as="geometry" />
        </mxCell>
        <mxCell id="WYEmnUTY5Pb3nIBCFr9V-96" style="edgeStyle=orthogonalEdgeStyle;rounded=0;orthogonalLoop=1;jettySize=auto;html=1;exitX=0;exitY=0.5;exitDx=0;exitDy=0;startArrow=classic;startFill=1;endArrow=none;endFill=0;entryX=1.002;entryY=0.066;entryDx=0;entryDy=0;entryPerimeter=0;endSize=2;startSize=2;fontColor=#143642;strokeColor=#FF0080;fillColor=#FAE5C7;sketch=0;" parent="1" source="WYEmnUTY5Pb3nIBCFr9V-95" target="WBZ4sOTp23pTqwXeyS6A-2" edge="1">
          <mxGeometry relative="1" as="geometry">
            <mxPoint x="114" y="-40" as="targetPoint" />
            <Array as="points">
              <mxPoint x="140" y="-220" />
              <mxPoint x="140" y="-34" />
              <mxPoint x="120" y="-34" />
            </Array>
          </mxGeometry>
        </mxCell>
        <mxCell id="WBZ4sOTp23pTqwXeyS6A-94" value="Lessons" style="swimlane;fontStyle=0;childLayout=stackLayout;horizontal=1;startSize=26;fillColor=#f8cecc;horizontalStack=0;resizeParent=1;resizeParentMax=0;resizeLast=0;collapsible=1;marginBottom=0;strokeColor=#b85450;" parent="1" vertex="1">
          <mxGeometry x="350" y="-410" width="140" height="258" as="geometry">
            <mxRectangle x="100" y="60" width="60" height="26" as="alternateBounds" />
          </mxGeometry>
        </mxCell>
        <mxCell id="WBZ4sOTp23pTqwXeyS6A-95" value="id" style="text;strokeColor=#666666;fillColor=#f5f5f5;align=left;verticalAlign=top;spacingLeft=4;spacingRight=4;overflow=hidden;rotatable=0;points=[[0,0.5],[1,0.5]];portConstraint=eastwest;gradientColor=#E6E6E6;" parent="WBZ4sOTp23pTqwXeyS6A-94" vertex="1">
          <mxGeometry y="26" width="140" height="26" as="geometry" />
        </mxCell>
        <mxCell id="WBZ4sOTp23pTqwXeyS6A-96" value="name" style="text;strokeColor=none;fillColor=#ffffff;align=left;verticalAlign=top;spacingLeft=4;spacingRight=4;overflow=hidden;rotatable=0;points=[[0,0.5],[1,0.5]];portConstraint=eastwest;" parent="WBZ4sOTp23pTqwXeyS6A-94" vertex="1">
          <mxGeometry y="52" width="140" height="26" as="geometry" />
        </mxCell>
        <mxCell id="WBZ4sOTp23pTqwXeyS6A-98" value="description" style="text;strokeColor=none;fillColor=#ffffff;align=left;verticalAlign=top;spacingLeft=4;spacingRight=4;overflow=hidden;rotatable=0;points=[[0,0.5],[1,0.5]];portConstraint=eastwest;" parent="WBZ4sOTp23pTqwXeyS6A-94" vertex="1">
          <mxGeometry y="78" width="140" height="24" as="geometry" />
        </mxCell>
        <mxCell id="WBZ4sOTp23pTqwXeyS6A-99" value="image" style="text;strokeColor=none;fillColor=#ffffff;align=left;verticalAlign=top;spacingLeft=4;spacingRight=4;overflow=hidden;rotatable=0;points=[[0,0.5],[1,0.5]];portConstraint=eastwest;" parent="WBZ4sOTp23pTqwXeyS6A-94" vertex="1">
          <mxGeometry y="102" width="140" height="26" as="geometry" />
        </mxCell>
        <mxCell id="WBZ4sOTp23pTqwXeyS6A-103" value="content" style="text;strokeColor=none;fillColor=#ffffff;align=left;verticalAlign=top;spacingLeft=4;spacingRight=4;overflow=hidden;rotatable=0;points=[[0,0.5],[1,0.5]];portConstraint=eastwest;" parent="WBZ4sOTp23pTqwXeyS6A-94" vertex="1">
          <mxGeometry y="128" width="140" height="26" as="geometry" />
        </mxCell>
        <mxCell id="WYEmnUTY5Pb3nIBCFr9V-91" value="date_start" style="text;strokeColor=none;fillColor=#ffffff;align=left;verticalAlign=top;spacingLeft=4;spacingRight=4;overflow=hidden;rotatable=0;points=[[0,0.5],[1,0.5]];portConstraint=eastwest;" parent="WBZ4sOTp23pTqwXeyS6A-94" vertex="1">
          <mxGeometry y="154" width="140" height="26" as="geometry" />
        </mxCell>
        <mxCell id="WYEmnUTY5Pb3nIBCFr9V-93" value="type" style="text;strokeColor=none;fillColor=#ffffff;align=left;verticalAlign=top;spacingLeft=4;spacingRight=4;overflow=hidden;rotatable=0;points=[[0,0.5],[1,0.5]];portConstraint=eastwest;" parent="WBZ4sOTp23pTqwXeyS6A-94" vertex="1">
          <mxGeometry y="180" width="140" height="26" as="geometry" />
        </mxCell>
        <mxCell id="WBZ4sOTp23pTqwXeyS6A-97" value="course_id" style="text;strokeColor=#d6b656;fillColor=#fff2cc;align=left;verticalAlign=top;spacingLeft=4;spacingRight=4;overflow=hidden;rotatable=0;points=[[0,0.5],[1,0.5]];portConstraint=eastwest;gradientColor=#ffd966;" parent="WBZ4sOTp23pTqwXeyS6A-94" vertex="1">
          <mxGeometry y="206" width="140" height="26" as="geometry" />
        </mxCell>
        <mxCell id="WYEmnUTY5Pb3nIBCFr9V-99" value="monitor_id" style="text;strokeColor=#d6b656;fillColor=#fff2cc;align=left;verticalAlign=top;spacingLeft=4;spacingRight=4;overflow=hidden;rotatable=0;points=[[0,0.5],[1,0.5]];portConstraint=eastwest;gradientColor=#ffd966;" parent="WBZ4sOTp23pTqwXeyS6A-94" vertex="1">
          <mxGeometry y="232" width="140" height="26" as="geometry" />
        </mxCell>
        <mxCell id="WYEmnUTY5Pb3nIBCFr9V-100" style="edgeStyle=orthogonalEdgeStyle;rounded=0;orthogonalLoop=1;jettySize=auto;html=1;exitX=0;exitY=0.5;exitDx=0;exitDy=0;entryX=1;entryY=0.245;entryDx=0;entryDy=0;entryPerimeter=0;startArrow=classic;startFill=1;endArrow=none;endFill=0;startSize=2;endSize=2;fontColor=#143642;strokeColor=#FF0080;fillColor=#FAE5C7;sketch=0;" parent="1" source="WYEmnUTY5Pb3nIBCFr9V-99" target="WBZ4sOTp23pTqwXeyS6A-2" edge="1">
          <mxGeometry relative="1" as="geometry">
            <Array as="points">
              <mxPoint x="330" y="-165" />
              <mxPoint x="330" y="-80" />
              <mxPoint x="150" y="-80" />
              <mxPoint x="150" y="-30" />
            </Array>
          </mxGeometry>
        </mxCell>
        <mxCell id="WYEmnUTY5Pb3nIBCFr9V-102" value="" style="edgeStyle=orthogonalEdgeStyle;rounded=0;orthogonalLoop=1;jettySize=auto;html=1;exitX=1;exitY=0.5;exitDx=0;exitDy=0;startArrow=classic;startFill=1;endArrow=none;endFill=0;entryX=0.998;entryY=0.567;entryDx=0;entryDy=0;entryPerimeter=0;startSize=2;endSize=2;fontColor=#143642;strokeColor=#FF0080;fillColor=#FAE5C7;sketch=0;" parent="1" source="WYEmnUTY5Pb3nIBCFr9V-101" target="WBZ4sOTp23pTqwXeyS6A-2" edge="1">
          <mxGeometry relative="1" as="geometry">
            <mxPoint x="110" y="-23" as="targetPoint" />
            <Array as="points">
              <mxPoint x="990" y="-386" />
              <mxPoint x="990" y="120" />
              <mxPoint x="150" y="120" />
              <mxPoint x="150" y="-21" />
            </Array>
          </mxGeometry>
        </mxCell>
        <mxCell id="WYEmnUTY5Pb3nIBCFr9V-103" value="Chats" style="swimlane;fontStyle=0;childLayout=stackLayout;horizontal=1;startSize=26;fillColor=#60a917;horizontalStack=0;resizeParent=1;resizeParentMax=0;resizeLast=0;collapsible=1;marginBottom=0;strokeColor=#2D7600;fontColor=#ffffff;" parent="1" vertex="1">
          <mxGeometry x="170" y="146" width="140" height="130" as="geometry">
            <mxRectangle x="100" y="60" width="60" height="26" as="alternateBounds" />
          </mxGeometry>
        </mxCell>
        <mxCell id="WYEmnUTY5Pb3nIBCFr9V-104" value="id" style="text;strokeColor=#666666;fillColor=#f5f5f5;align=left;verticalAlign=top;spacingLeft=4;spacingRight=4;overflow=hidden;rotatable=0;points=[[0,0.5],[1,0.5]];portConstraint=eastwest;gradientColor=#E6E6E6;" parent="WYEmnUTY5Pb3nIBCFr9V-103" vertex="1">
          <mxGeometry y="26" width="140" height="26" as="geometry" />
        </mxCell>
        <mxCell id="WYEmnUTY5Pb3nIBCFr9V-105" value="name" style="text;strokeColor=none;fillColor=#ffffff;align=left;verticalAlign=top;spacingLeft=4;spacingRight=4;overflow=hidden;rotatable=0;points=[[0,0.5],[1,0.5]];portConstraint=eastwest;" parent="WYEmnUTY5Pb3nIBCFr9V-103" vertex="1">
          <mxGeometry y="52" width="140" height="26" as="geometry" />
        </mxCell>
        <mxCell id="WYEmnUTY5Pb3nIBCFr9V-132" value="image" style="text;strokeColor=none;fillColor=#ffffff;align=left;verticalAlign=top;spacingLeft=4;spacingRight=4;overflow=hidden;rotatable=0;points=[[0,0.5],[1,0.5]];portConstraint=eastwest;" parent="WYEmnUTY5Pb3nIBCFr9V-103" vertex="1">
          <mxGeometry y="78" width="140" height="26" as="geometry" />
        </mxCell>
        <mxCell id="WYEmnUTY5Pb3nIBCFr9V-127" value="user_id" style="text;strokeColor=#d6b656;fillColor=#fff2cc;align=left;verticalAlign=top;spacingLeft=4;spacingRight=4;overflow=hidden;rotatable=0;points=[[0,0.5],[1,0.5]];portConstraint=eastwest;gradientColor=#ffd966;" parent="WYEmnUTY5Pb3nIBCFr9V-103" vertex="1">
          <mxGeometry y="104" width="140" height="26" as="geometry" />
        </mxCell>
        <mxCell id="WYEmnUTY5Pb3nIBCFr9V-120" value="Participants" style="swimlane;fontStyle=0;childLayout=stackLayout;horizontal=1;startSize=26;fillColor=#cdeb8b;horizontalStack=0;resizeParent=1;resizeParentMax=0;resizeLast=0;collapsible=1;marginBottom=0;strokeColor=#36393d;" parent="1" vertex="1">
          <mxGeometry x="170" y="295" width="140" height="104" as="geometry">
            <mxRectangle x="100" y="60" width="60" height="26" as="alternateBounds" />
          </mxGeometry>
        </mxCell>
        <mxCell id="WYEmnUTY5Pb3nIBCFr9V-121" value="id" style="text;strokeColor=#666666;fillColor=#f5f5f5;align=left;verticalAlign=top;spacingLeft=4;spacingRight=4;overflow=hidden;rotatable=0;points=[[0,0.5],[1,0.5]];portConstraint=eastwest;gradientColor=#E6E6E6;" parent="WYEmnUTY5Pb3nIBCFr9V-120" vertex="1">
          <mxGeometry y="26" width="140" height="26" as="geometry" />
        </mxCell>
        <mxCell id="WYEmnUTY5Pb3nIBCFr9V-122" value="user_id" style="text;strokeColor=#d6b656;fillColor=#fff2cc;align=left;verticalAlign=top;spacingLeft=4;spacingRight=4;overflow=hidden;rotatable=0;points=[[0,0.5],[1,0.5]];portConstraint=eastwest;gradientColor=#ffd966;" parent="WYEmnUTY5Pb3nIBCFr9V-120" vertex="1">
          <mxGeometry y="52" width="140" height="26" as="geometry" />
        </mxCell>
        <mxCell id="WYEmnUTY5Pb3nIBCFr9V-123" value="chat_id" style="text;strokeColor=#d6b656;fillColor=#fff2cc;align=left;verticalAlign=top;spacingLeft=4;spacingRight=4;overflow=hidden;rotatable=0;points=[[0,0.5],[1,0.5]];portConstraint=eastwest;gradientColor=#ffd966;" parent="WYEmnUTY5Pb3nIBCFr9V-120" vertex="1">
          <mxGeometry y="78" width="140" height="26" as="geometry" />
        </mxCell>
        <mxCell id="WYEmnUTY5Pb3nIBCFr9V-133" style="edgeStyle=orthogonalEdgeStyle;rounded=0;orthogonalLoop=1;jettySize=auto;html=1;entryX=1.015;entryY=0.173;entryDx=0;entryDy=0;startArrow=classic;startFill=1;startSize=2;endArrow=none;endFill=0;endSize=3;exitX=-0.005;exitY=0.935;exitDx=0;exitDy=0;entryPerimeter=0;strokeColor=#99FF33;exitPerimeter=0;" parent="1" source="bOIeK9XrqMuyP5t5MUJa-1" target="WYEmnUTY5Pb3nIBCFr9V-111" edge="1">
          <mxGeometry relative="1" as="geometry">
            <mxPoint x="510" y="275" as="sourcePoint" />
            <Array as="points">
              <mxPoint x="600" y="-142" />
              <mxPoint x="600" y="-113" />
              <mxPoint x="530" y="-113" />
              <mxPoint x="530" y="360" />
            </Array>
          </mxGeometry>
        </mxCell>
        <mxCell id="WYEmnUTY5Pb3nIBCFr9V-110" value="Messages" style="swimlane;fontStyle=0;childLayout=stackLayout;horizontal=1;startSize=26;fillColor=#cdeb8b;horizontalStack=0;resizeParent=1;resizeParentMax=0;resizeLast=0;collapsible=1;marginBottom=0;strokeColor=#36393d;" parent="1" vertex="1">
          <mxGeometry x="370" y="330" width="140" height="130" as="geometry">
            <mxRectangle x="100" y="60" width="60" height="26" as="alternateBounds" />
          </mxGeometry>
        </mxCell>
        <mxCell id="WYEmnUTY5Pb3nIBCFr9V-111" value="id" style="text;strokeColor=#666666;fillColor=#f5f5f5;align=left;verticalAlign=top;spacingLeft=4;spacingRight=4;overflow=hidden;rotatable=0;points=[[0,0.5],[1,0.5]];portConstraint=eastwest;gradientColor=#E6E6E6;" parent="WYEmnUTY5Pb3nIBCFr9V-110" vertex="1">
          <mxGeometry y="26" width="140" height="26" as="geometry" />
        </mxCell>
        <mxCell id="WYEmnUTY5Pb3nIBCFr9V-112" value="chat_id" style="text;strokeColor=#d6b656;fillColor=#fff2cc;align=left;verticalAlign=top;spacingLeft=4;spacingRight=4;overflow=hidden;rotatable=0;points=[[0,0.5],[1,0.5]];portConstraint=eastwest;gradientColor=#ffd966;" parent="WYEmnUTY5Pb3nIBCFr9V-110" vertex="1">
          <mxGeometry y="52" width="140" height="26" as="geometry" />
        </mxCell>
        <mxCell id="WYEmnUTY5Pb3nIBCFr9V-113" value="user_id" style="text;strokeColor=#d6b656;fillColor=#fff2cc;align=left;verticalAlign=top;spacingLeft=4;spacingRight=4;overflow=hidden;rotatable=0;points=[[0,0.5],[1,0.5]];portConstraint=eastwest;gradientColor=#ffd966;" parent="WYEmnUTY5Pb3nIBCFr9V-110" vertex="1">
          <mxGeometry y="78" width="140" height="26" as="geometry" />
        </mxCell>
        <mxCell id="WYEmnUTY5Pb3nIBCFr9V-114" value="text" style="text;strokeColor=none;fillColor=#ffffff;align=left;verticalAlign=top;spacingLeft=4;spacingRight=4;overflow=hidden;rotatable=0;points=[[0,0.5],[1,0.5]];portConstraint=eastwest;" parent="WYEmnUTY5Pb3nIBCFr9V-110" vertex="1">
          <mxGeometry y="104" width="140" height="26" as="geometry" />
        </mxCell>
        <mxCell id="WYEmnUTY5Pb3nIBCFr9V-136" style="edgeStyle=orthogonalEdgeStyle;rounded=0;orthogonalLoop=1;jettySize=auto;html=1;exitX=0;exitY=0.5;exitDx=0;exitDy=0;startArrow=classic;startFill=1;startSize=2;endArrow=none;endFill=0;endSize=2;entryX=1.003;entryY=-0.003;entryDx=0;entryDy=0;entryPerimeter=0;fontColor=#143642;strokeColor=#FF0080;fillColor=#FAE5C7;sketch=0;" parent="1" source="WYEmnUTY5Pb3nIBCFr9V-113" target="WBZ4sOTp23pTqwXeyS6A-4" edge="1">
          <mxGeometry relative="1" as="geometry">
            <mxPoint x="120" y="-10" as="targetPoint" />
            <Array as="points">
              <mxPoint x="120" y="421" />
              <mxPoint x="120" y="-10" />
            </Array>
          </mxGeometry>
        </mxCell>
        <mxCell id="WYEmnUTY5Pb3nIBCFr9V-137" style="edgeStyle=orthogonalEdgeStyle;rounded=0;orthogonalLoop=1;jettySize=auto;html=1;exitX=0;exitY=0.5;exitDx=0;exitDy=0;startArrow=classic;startFill=1;startSize=2;endArrow=none;endFill=0;endSize=2;fontColor=#143642;strokeColor=#FF0080;fillColor=#FAE5C7;sketch=0;" parent="1" source="WYEmnUTY5Pb3nIBCFr9V-127" edge="1">
          <mxGeometry relative="1" as="geometry">
            <mxPoint x="120" y="263" as="targetPoint" />
            <Array as="points">
              <mxPoint x="120" y="263" />
            </Array>
          </mxGeometry>
        </mxCell>
        <mxCell id="WYEmnUTY5Pb3nIBCFr9V-138" style="edgeStyle=orthogonalEdgeStyle;rounded=0;orthogonalLoop=1;jettySize=auto;html=1;exitX=0;exitY=0.5;exitDx=0;exitDy=0;startArrow=classic;startFill=1;startSize=2;endArrow=none;endFill=0;endSize=2;fontColor=#143642;strokeColor=#FF0080;fillColor=#FAE5C7;sketch=0;" parent="1" source="WYEmnUTY5Pb3nIBCFr9V-122" edge="1">
          <mxGeometry relative="1" as="geometry">
            <mxPoint x="120" y="360" as="targetPoint" />
          </mxGeometry>
        </mxCell>
        <mxCell id="WYEmnUTY5Pb3nIBCFr9V-139" style="rounded=0;orthogonalLoop=1;jettySize=auto;html=1;startArrow=classic;startFill=1;startSize=3;endArrow=none;endFill=0;endSize=3;exitX=0.997;exitY=0.654;exitDx=0;exitDy=0;exitPerimeter=0;edgeStyle=elbowEdgeStyle;strokeColor=#99FF33;" parent="1" source="WYEmnUTY5Pb3nIBCFr9V-123" target="WYEmnUTY5Pb3nIBCFr9V-104" edge="1">
          <mxGeometry relative="1" as="geometry">
            <mxPoint x="320" y="400" as="sourcePoint" />
            <Array as="points">
              <mxPoint x="320" y="290" />
            </Array>
          </mxGeometry>
        </mxCell>
        <mxCell id="WYEmnUTY5Pb3nIBCFr9V-140" style="edgeStyle=elbowEdgeStyle;rounded=0;orthogonalLoop=1;jettySize=auto;html=1;exitX=0;exitY=0.5;exitDx=0;exitDy=0;startArrow=classic;startFill=1;startSize=3;endArrow=none;endFill=0;endSize=3;strokeColor=#99FF33;" parent="1" source="WYEmnUTY5Pb3nIBCFr9V-112" edge="1">
          <mxGeometry relative="1" as="geometry">
            <mxPoint x="312" y="178" as="targetPoint" />
          </mxGeometry>
        </mxCell>
        <mxCell id="WYEmnUTY5Pb3nIBCFr9V-150" value="Notifications" style="swimlane;fontStyle=0;childLayout=stackLayout;horizontal=1;startSize=26;fillColor=#cdeb8b;horizontalStack=0;resizeParent=1;resizeParentMax=0;resizeLast=0;collapsible=1;marginBottom=0;strokeColor=#36393d;" parent="1" vertex="1">
          <mxGeometry x="580" y="220" width="140" height="104" as="geometry">
            <mxRectangle x="100" y="60" width="60" height="26" as="alternateBounds" />
          </mxGeometry>
        </mxCell>
        <mxCell id="WYEmnUTY5Pb3nIBCFr9V-151" value="id" style="text;strokeColor=#666666;fillColor=#f5f5f5;align=left;verticalAlign=top;spacingLeft=4;spacingRight=4;overflow=hidden;rotatable=0;points=[[0,0.5],[1,0.5]];portConstraint=eastwest;gradientColor=#E6E6E6;" parent="WYEmnUTY5Pb3nIBCFr9V-150" vertex="1">
          <mxGeometry y="26" width="140" height="26" as="geometry" />
        </mxCell>
        <mxCell id="WYEmnUTY5Pb3nIBCFr9V-153" value="message_id" style="text;strokeColor=#d6b656;fillColor=#fff2cc;align=left;verticalAlign=top;spacingLeft=4;spacingRight=4;overflow=hidden;rotatable=0;points=[[0,0.5],[1,0.5]];portConstraint=eastwest;gradientColor=#ffd966;" parent="WYEmnUTY5Pb3nIBCFr9V-150" vertex="1">
          <mxGeometry y="52" width="140" height="26" as="geometry" />
        </mxCell>
        <mxCell id="WYEmnUTY5Pb3nIBCFr9V-152" value="user_id" style="text;strokeColor=#d6b656;fillColor=#fff2cc;align=left;verticalAlign=top;spacingLeft=4;spacingRight=4;overflow=hidden;rotatable=0;points=[[0,0.5],[1,0.5]];portConstraint=eastwest;gradientColor=#ffd966;" parent="WYEmnUTY5Pb3nIBCFr9V-150" vertex="1">
          <mxGeometry y="78" width="140" height="26" as="geometry" />
        </mxCell>
        <mxCell id="WYEmnUTY5Pb3nIBCFr9V-154" style="edgeStyle=elbowEdgeStyle;rounded=0;orthogonalLoop=1;jettySize=auto;html=1;exitX=0;exitY=0.5;exitDx=0;exitDy=0;startArrow=classic;startFill=1;startSize=3;endArrow=none;endFill=0;endSize=3;entryX=1;entryY=0.5;entryDx=0;entryDy=0;strokeColor=#99FF33;" parent="1" source="WYEmnUTY5Pb3nIBCFr9V-153" target="WYEmnUTY5Pb3nIBCFr9V-111" edge="1">
          <mxGeometry relative="1" as="geometry">
            <mxPoint x="510" y="377" as="targetPoint" />
            <Array as="points" />
          </mxGeometry>
        </mxCell>
        <mxCell id="WYEmnUTY5Pb3nIBCFr9V-155" style="edgeStyle=orthogonalEdgeStyle;rounded=0;orthogonalLoop=1;jettySize=auto;html=1;startArrow=classic;startFill=1;startSize=2;endArrow=none;endFill=0;endSize=2;elbow=vertical;fontColor=#143642;strokeColor=#FF0080;fillColor=#FAE5C7;sketch=0;" parent="1" edge="1">
          <mxGeometry relative="1" as="geometry">
            <mxPoint x="120" y="420" as="targetPoint" />
            <mxPoint x="580" y="311" as="sourcePoint" />
            <Array as="points">
              <mxPoint x="570" y="311" />
              <mxPoint x="570" y="470" />
              <mxPoint x="120" y="470" />
            </Array>
          </mxGeometry>
        </mxCell>
        <mxCell id="IU5A_lCc43EPzs8Wn4nt-8" value="Users_Subscriptions" style="swimlane;fontStyle=0;childLayout=stackLayout;horizontal=1;startSize=26;fillColor=#f5f5f5;horizontalStack=0;resizeParent=1;resizeParentMax=0;resizeLast=0;collapsible=1;marginBottom=0;strokeColor=#666666;fontColor=#333333;" parent="1" vertex="1">
          <mxGeometry x="-210" y="30" width="140" height="104" as="geometry">
            <mxRectangle x="100" y="60" width="60" height="26" as="alternateBounds" />
          </mxGeometry>
        </mxCell>
        <mxCell id="IU5A_lCc43EPzs8Wn4nt-9" value="id" style="text;strokeColor=#666666;fillColor=#f5f5f5;align=left;verticalAlign=top;spacingLeft=4;spacingRight=4;overflow=hidden;rotatable=0;points=[[0,0.5],[1,0.5]];portConstraint=eastwest;gradientColor=#E6E6E6;" parent="IU5A_lCc43EPzs8Wn4nt-8" vertex="1">
          <mxGeometry y="26" width="140" height="26" as="geometry" />
        </mxCell>
        <mxCell id="IU5A_lCc43EPzs8Wn4nt-10" value="user_id" style="text;strokeColor=#d6b656;fillColor=#fff2cc;align=left;verticalAlign=top;spacingLeft=4;spacingRight=4;overflow=hidden;rotatable=0;points=[[0,0.5],[1,0.5]];portConstraint=eastwest;gradientColor=#FFF9E3;" parent="IU5A_lCc43EPzs8Wn4nt-8" vertex="1">
          <mxGeometry y="52" width="140" height="26" as="geometry" />
        </mxCell>
        <mxCell id="IU5A_lCc43EPzs8Wn4nt-11" value="subsciptions_id" style="text;strokeColor=#d6b656;fillColor=#fff2cc;align=left;verticalAlign=top;spacingLeft=4;spacingRight=4;overflow=hidden;rotatable=0;points=[[0,0.5],[1,0.5]];portConstraint=eastwest;gradientColor=#FFF9E3;" parent="IU5A_lCc43EPzs8Wn4nt-8" vertex="1">
          <mxGeometry y="78" width="140" height="26" as="geometry" />
        </mxCell>
        <mxCell id="IU5A_lCc43EPzs8Wn4nt-12" style="edgeStyle=orthogonalEdgeStyle;rounded=0;orthogonalLoop=1;jettySize=auto;html=1;exitX=0;exitY=0.5;exitDx=0;exitDy=0;entryX=1;entryY=0.25;entryDx=0;entryDy=0;endArrow=none;endFill=0;startArrow=classic;startFill=1;endSize=2;startSize=2;strokeColor=#6666FF;" parent="1" source="IU5A_lCc43EPzs8Wn4nt-11" target="IU5A_lCc43EPzs8Wn4nt-1" edge="1">
          <mxGeometry relative="1" as="geometry">
            <Array as="points">
              <mxPoint x="-250" y="121" />
              <mxPoint x="-250" y="-412" />
            </Array>
          </mxGeometry>
        </mxCell>
        <mxCell id="IU5A_lCc43EPzs8Wn4nt-13" style="edgeStyle=orthogonalEdgeStyle;rounded=0;orthogonalLoop=1;jettySize=auto;html=1;exitX=1;exitY=0.5;exitDx=0;exitDy=0;startSize=2;endSize=2;startArrow=classic;startFill=1;endArrow=none;endFill=0;fontColor=#143642;strokeColor=#FF0080;fillColor=#FAE5C7;sketch=0;" parent="1" source="IU5A_lCc43EPzs8Wn4nt-10" edge="1">
          <mxGeometry relative="1" as="geometry">
            <mxPoint x="-30" y="-19" as="targetPoint" />
            <Array as="points">
              <mxPoint x="-60" y="95" />
              <mxPoint x="-60" y="-19" />
            </Array>
          </mxGeometry>
        </mxCell>
        <mxCell id="IU5A_lCc43EPzs8Wn4nt-31" style="edgeStyle=orthogonalEdgeStyle;rounded=0;orthogonalLoop=1;jettySize=auto;html=1;exitX=1;exitY=0.5;exitDx=0;exitDy=0;entryX=0;entryY=0.5;entryDx=0;entryDy=0;startArrow=classic;startFill=1;endArrow=none;endFill=0;endSize=2;startSize=2;strokeColor=#6666FF;" parent="1" source="IU5A_lCc43EPzs8Wn4nt-23" target="IU5A_lCc43EPzs8Wn4nt-15" edge="1">
          <mxGeometry relative="1" as="geometry">
            <Array as="points">
              <mxPoint x="-425" y="-283" />
              <mxPoint x="-425" y="-205" />
            </Array>
          </mxGeometry>
        </mxCell>
        <mxCell id="IU5A_lCc43EPzs8Wn4nt-32" style="edgeStyle=orthogonalEdgeStyle;rounded=0;orthogonalLoop=1;jettySize=auto;html=1;exitX=1;exitY=0.5;exitDx=0;exitDy=0;startArrow=classic;startFill=1;startSize=2;endArrow=none;endFill=0;endSize=2;entryX=1;entryY=0.5;entryDx=0;entryDy=0;strokeColor=#6666FF;" parent="1" source="IU5A_lCc43EPzs8Wn4nt-30" target="IU5A_lCc43EPzs8Wn4nt-2" edge="1">
          <mxGeometry relative="1" as="geometry">
            <mxPoint x="-259.04761904761904" y="-280" as="targetPoint" />
            <Array as="points">
              <mxPoint x="-259" y="-101" />
              <mxPoint x="-259" y="-400" />
              <mxPoint x="-270" y="-400" />
            </Array>
          </mxGeometry>
        </mxCell>
        <mxCell id="IU5A_lCc43EPzs8Wn4nt-33" value="" style="edgeStyle=orthogonalEdgeStyle;rounded=0;orthogonalLoop=1;jettySize=auto;html=1;exitX=0;exitY=0.5;exitDx=0;exitDy=0;startArrow=classic;startFill=1;startSize=2;endArrow=none;endFill=0;endSize=2;entryX=0;entryY=0.779;entryDx=0;entryDy=0;entryPerimeter=0;fontColor=#143642;strokeColor=#FF0080;fillColor=#FAE5C7;sketch=0;" parent="1" source="IU5A_lCc43EPzs8Wn4nt-19" target="WBZ4sOTp23pTqwXeyS6A-2" edge="1">
          <mxGeometry relative="1" as="geometry">
            <mxPoint x="-30" y="-10" as="targetPoint" />
            <Array as="points">
              <mxPoint x="-430" y="-127" />
              <mxPoint x="-430" y="-60" />
              <mxPoint x="-260" y="-60" />
              <mxPoint x="-260" y="150" />
              <mxPoint x="-50" y="150" />
              <mxPoint x="-50" y="-16" />
            </Array>
          </mxGeometry>
        </mxCell>
        <mxCell id="IU5A_lCc43EPzs8Wn4nt-60" style="edgeStyle=orthogonalEdgeStyle;rounded=0;orthogonalLoop=1;jettySize=auto;html=1;exitX=1;exitY=0.5;exitDx=0;exitDy=0;entryX=1;entryY=0.5;entryDx=0;entryDy=0;startArrow=classic;startFill=1;endArrow=none;endFill=0;endSize=2;startSize=2;strokeColor=#6666FF;" parent="1" source="IU5A_lCc43EPzs8Wn4nt-41" target="IU5A_lCc43EPzs8Wn4nt-43" edge="1">
          <mxGeometry relative="1" as="geometry">
            <mxPoint x="-604.5" y="126" as="sourcePoint" />
            <Array as="points">
              <mxPoint x="-442" y="-257" />
              <mxPoint x="-442" y="-186" />
            </Array>
          </mxGeometry>
        </mxCell>
        <mxCell id="IU5A_lCc43EPzs8Wn4nt-84" style="edgeStyle=orthogonalEdgeStyle;rounded=0;orthogonalLoop=1;jettySize=auto;html=1;exitX=1;exitY=0.5;exitDx=0;exitDy=0;entryX=1;entryY=0.5;entryDx=0;entryDy=0;startArrow=none;startFill=0;endArrow=classic;endFill=1;fontColor=#000000;endSize=2;startSize=2;strokeColor=#CCCC00;" parent="1" source="IU5A_lCc43EPzs8Wn4nt-71" target="bOIeK9XrqMuyP5t5MUJa-1" edge="1">
          <mxGeometry relative="1" as="geometry">
            <Array as="points">
              <mxPoint x="900" y="-29" />
              <mxPoint x="900" y="-153" />
            </Array>
            <mxPoint x="810" y="48" as="targetPoint" />
          </mxGeometry>
        </mxCell>
        <mxCell id="IU5A_lCc43EPzs8Wn4nt-123" value="&lt;font style=&quot;font-size: 14px&quot; color=&quot;#666666&quot;&gt;MVP&lt;/font&gt;" style="text;html=1;strokeColor=none;fillColor=none;align=left;verticalAlign=middle;whiteSpace=wrap;rounded=0;fontColor=#ffffff;opacity=40;" parent="1" vertex="1">
          <mxGeometry x="-346" y="250" width="166" height="20" as="geometry" />
        </mxCell>
        <mxCell id="WBZ4sOTp23pTqwXeyS6A-130" style="edgeStyle=none;rounded=0;orthogonalLoop=1;jettySize=auto;html=1;exitX=1;exitY=0.5;exitDx=0;exitDy=0;entryX=0;entryY=0.5;entryDx=0;entryDy=0;startArrow=none;startFill=0;endArrow=classic;endFill=1;endSize=2;startSize=2;strokeColor=#FF6666;" parent="1" source="WBZ4sOTp23pTqwXeyS6A-116" target="WBZ4sOTp23pTqwXeyS6A-128" edge="1">
          <mxGeometry relative="1" as="geometry" />
        </mxCell>
        <mxCell id="WBZ4sOTp23pTqwXeyS6A-1" value="Users" style="swimlane;fontStyle=0;childLayout=stackLayout;horizontal=1;startSize=26;fillColor=#d80073;horizontalStack=0;resizeParent=1;resizeParentMax=0;resizeLast=0;collapsible=1;marginBottom=0;strokeColor=#A50040;fontColor=#ffffff;" parent="1" vertex="1">
          <mxGeometry x="-30" y="-62" width="140" height="402" as="geometry">
            <mxRectangle x="100" y="60" width="60" height="26" as="alternateBounds" />
          </mxGeometry>
        </mxCell>
        <mxCell id="WBZ4sOTp23pTqwXeyS6A-2" value="id" style="text;align=left;verticalAlign=top;spacingLeft=4;spacingRight=4;overflow=hidden;rotatable=0;points=[[0,0.5],[1,0.5]];portConstraint=eastwest;fillColor=#f5f5f5;strokeColor=#666666;gradientColor=#E6E6E6;" parent="WBZ4sOTp23pTqwXeyS6A-1" vertex="1">
          <mxGeometry y="26" width="140" height="26" as="geometry" />
        </mxCell>
        <mxCell id="WBZ4sOTp23pTqwXeyS6A-4" value="username" style="text;strokeColor=none;align=left;verticalAlign=top;spacingLeft=4;spacingRight=4;overflow=hidden;rotatable=0;points=[[0,0.5],[1,0.5]];portConstraint=eastwest;fillColor=#ffffff;" parent="WBZ4sOTp23pTqwXeyS6A-1" vertex="1">
          <mxGeometry y="52" width="140" height="26" as="geometry" />
        </mxCell>
        <mxCell id="WBZ4sOTp23pTqwXeyS6A-49" value="password" style="text;strokeColor=none;align=left;verticalAlign=top;spacingLeft=4;spacingRight=4;overflow=hidden;rotatable=0;points=[[0,0.5],[1,0.5]];portConstraint=eastwest;fillColor=#ffffff;" parent="WBZ4sOTp23pTqwXeyS6A-1" vertex="1">
          <mxGeometry y="78" width="140" height="26" as="geometry" />
        </mxCell>
        <mxCell id="WBZ4sOTp23pTqwXeyS6A-41" value="tutor_id" style="text;strokeColor=#b85450;fillColor=#f8cecc;align=left;verticalAlign=top;spacingLeft=4;spacingRight=4;overflow=hidden;rotatable=0;points=[[0,0.5],[1,0.5]];portConstraint=eastwest;gradientColor=#ea6b66;" parent="WBZ4sOTp23pTqwXeyS6A-1" vertex="1">
          <mxGeometry y="104" width="140" height="26" as="geometry" />
        </mxCell>
        <mxCell id="WBZ4sOTp23pTqwXeyS6A-3" value="email" style="text;strokeColor=none;align=left;verticalAlign=top;spacingLeft=4;spacingRight=4;overflow=hidden;rotatable=0;points=[[0,0.5],[1,0.5]];portConstraint=eastwest;fillColor=#ffffff;" parent="WBZ4sOTp23pTqwXeyS6A-1" vertex="1">
          <mxGeometry y="130" width="140" height="26" as="geometry" />
        </mxCell>
        <mxCell id="OMGFsxL6FJG4bvum0Mdm-10" value="email" style="text;strokeColor=none;align=left;verticalAlign=top;spacingLeft=4;spacingRight=4;overflow=hidden;rotatable=0;points=[[0,0.5],[1,0.5]];portConstraint=eastwest;fillColor=#ffffff;" parent="WBZ4sOTp23pTqwXeyS6A-1" vertex="1">
          <mxGeometry y="156" width="140" height="26" as="geometry" />
        </mxCell>
        <mxCell id="WBZ4sOTp23pTqwXeyS6A-47" value="name" style="text;strokeColor=none;align=left;verticalAlign=top;spacingLeft=4;spacingRight=4;overflow=hidden;rotatable=0;points=[[0,0.5],[1,0.5]];portConstraint=eastwest;fillColor=#ffffff;" parent="WBZ4sOTp23pTqwXeyS6A-1" vertex="1">
          <mxGeometry y="182" width="140" height="26" as="geometry" />
        </mxCell>
        <mxCell id="WBZ4sOTp23pTqwXeyS6A-40" value="lastname" style="text;strokeColor=none;align=left;verticalAlign=top;spacingLeft=4;spacingRight=4;overflow=hidden;rotatable=0;points=[[0,0.5],[1,0.5]];portConstraint=eastwest;fillColor=#ffffff;" parent="WBZ4sOTp23pTqwXeyS6A-1" vertex="1">
          <mxGeometry y="208" width="140" height="26" as="geometry" />
        </mxCell>
        <mxCell id="WBZ4sOTp23pTqwXeyS6A-48" value="phone" style="text;strokeColor=none;align=left;verticalAlign=top;spacingLeft=4;spacingRight=4;overflow=hidden;rotatable=0;points=[[0,0.5],[1,0.5]];portConstraint=eastwest;fillColor=#ffffff;" parent="WBZ4sOTp23pTqwXeyS6A-1" vertex="1">
          <mxGeometry y="234" width="140" height="26" as="geometry" />
        </mxCell>
        <mxCell id="WBZ4sOTp23pTqwXeyS6A-42" value="birthday" style="text;strokeColor=none;align=left;verticalAlign=top;spacingLeft=4;spacingRight=4;overflow=hidden;rotatable=0;points=[[0,0.5],[1,0.5]];portConstraint=eastwest;fillColor=#ffffff;" parent="WBZ4sOTp23pTqwXeyS6A-1" vertex="1">
          <mxGeometry y="260" width="140" height="26" as="geometry" />
        </mxCell>
        <mxCell id="WBZ4sOTp23pTqwXeyS6A-43" value="address" style="text;strokeColor=none;align=left;verticalAlign=top;spacingLeft=4;spacingRight=4;overflow=hidden;rotatable=0;points=[[0,0.5],[1,0.5]];portConstraint=eastwest;fillColor=#ffffff;" parent="WBZ4sOTp23pTqwXeyS6A-1" vertex="1">
          <mxGeometry y="286" width="140" height="26" as="geometry" />
        </mxCell>
        <mxCell id="WBZ4sOTp23pTqwXeyS6A-44" value="role" style="text;strokeColor=none;align=left;verticalAlign=top;spacingLeft=4;spacingRight=4;overflow=hidden;rotatable=0;points=[[0,0.5],[1,0.5]];portConstraint=eastwest;fillColor=#ffffff;" parent="WBZ4sOTp23pTqwXeyS6A-1" vertex="1">
          <mxGeometry y="312" width="140" height="26" as="geometry" />
        </mxCell>
        <mxCell id="mWRmWCF3Az8t2-I1Iuax-2" value="avatar" style="text;strokeColor=none;align=left;verticalAlign=top;spacingLeft=4;spacingRight=4;overflow=hidden;rotatable=0;points=[[0,0.5],[1,0.5]];portConstraint=eastwest;fillColor=#ffffff;" parent="WBZ4sOTp23pTqwXeyS6A-1" vertex="1">
          <mxGeometry y="338" width="140" height="26" as="geometry" />
        </mxCell>
        <mxCell id="WBZ4sOTp23pTqwXeyS6A-50" value="activation:&#xa;is_active, token" style="text;strokeColor=none;align=left;verticalAlign=top;spacingLeft=4;spacingRight=4;overflow=hidden;rotatable=0;points=[[0,0.5],[1,0.5]];portConstraint=eastwest;fillColor=#ffffff;" parent="WBZ4sOTp23pTqwXeyS6A-1" vertex="1">
          <mxGeometry y="364" width="140" height="38" as="geometry" />
        </mxCell>
        <mxCell id="WYEmnUTY5Pb3nIBCFr9V-50" value="Games" style="swimlane;fontStyle=0;childLayout=stackLayout;horizontal=1;startSize=26;fillColor=#1ba1e2;horizontalStack=0;resizeParent=1;resizeParentMax=0;resizeLast=0;collapsible=1;marginBottom=0;strokeColor=#006EAF;fontColor=#ffffff;" parent="1" vertex="1">
          <mxGeometry x="701" y="-574" width="140" height="200" as="geometry">
            <mxRectangle x="100" y="60" width="60" height="26" as="alternateBounds" />
          </mxGeometry>
        </mxCell>
        <mxCell id="WYEmnUTY5Pb3nIBCFr9V-51" value="id" style="text;strokeColor=#666666;fillColor=#f5f5f5;align=left;verticalAlign=top;spacingLeft=4;spacingRight=4;overflow=hidden;rotatable=0;points=[[0,0.5],[1,0.5]];portConstraint=eastwest;gradientColor=#E6E6E6;" parent="WYEmnUTY5Pb3nIBCFr9V-50" vertex="1">
          <mxGeometry y="26" width="140" height="26" as="geometry" />
        </mxCell>
        <mxCell id="WYEmnUTY5Pb3nIBCFr9V-52" value="name" style="text;strokeColor=none;fillColor=#ffffff;align=left;verticalAlign=top;spacingLeft=4;spacingRight=4;overflow=hidden;rotatable=0;points=[[0,0.5],[1,0.5]];portConstraint=eastwest;" parent="WYEmnUTY5Pb3nIBCFr9V-50" vertex="1">
          <mxGeometry y="52" width="140" height="26" as="geometry" />
        </mxCell>
        <mxCell id="WYEmnUTY5Pb3nIBCFr9V-54" value="avatar" style="text;strokeColor=none;fillColor=#ffffff;align=left;verticalAlign=top;spacingLeft=4;spacingRight=4;overflow=hidden;rotatable=0;points=[[0,0.5],[1,0.5]];portConstraint=eastwest;" parent="WYEmnUTY5Pb3nIBCFr9V-50" vertex="1">
          <mxGeometry y="78" width="140" height="26" as="geometry" />
        </mxCell>
        <mxCell id="WYEmnUTY5Pb3nIBCFr9V-55" value="description" style="text;strokeColor=none;fillColor=#ffffff;align=left;verticalAlign=top;spacingLeft=4;spacingRight=4;overflow=hidden;rotatable=0;points=[[0,0.5],[1,0.5]];portConstraint=eastwest;" parent="WYEmnUTY5Pb3nIBCFr9V-50" vertex="1">
          <mxGeometry y="104" width="140" height="24" as="geometry" />
        </mxCell>
        <mxCell id="7ADw7ZlkE8VIJu58JnUF-8" value="time_base" style="text;strokeColor=none;fillColor=#ffffff;align=left;verticalAlign=top;spacingLeft=4;spacingRight=4;overflow=hidden;rotatable=0;points=[[0,0.5],[1,0.5]];portConstraint=eastwest;" parent="WYEmnUTY5Pb3nIBCFr9V-50" vertex="1">
          <mxGeometry y="128" width="140" height="24" as="geometry" />
        </mxCell>
        <mxCell id="WYEmnUTY5Pb3nIBCFr9V-60" value="lesson_id" style="text;strokeColor=#d6b656;fillColor=#fff2cc;align=left;verticalAlign=top;spacingLeft=4;spacingRight=4;overflow=hidden;rotatable=0;points=[[0,0.5],[1,0.5]];portConstraint=eastwest;gradientColor=#ffd966;" parent="WYEmnUTY5Pb3nIBCFr9V-50" vertex="1">
          <mxGeometry y="152" width="140" height="24" as="geometry" />
        </mxCell>
        <mxCell id="WYEmnUTY5Pb3nIBCFr9V-101" value="monitor_id" style="text;strokeColor=#d6b656;fillColor=#fff2cc;align=left;verticalAlign=top;spacingLeft=4;spacingRight=4;overflow=hidden;rotatable=0;points=[[0,0.5],[1,0.5]];portConstraint=eastwest;gradientColor=#ffd966;" parent="WYEmnUTY5Pb3nIBCFr9V-50" vertex="1">
          <mxGeometry y="176" width="140" height="24" as="geometry" />
        </mxCell>
        <mxCell id="I4Ou28Vm4YZ_q-Tm8Q4y-3" style="edgeStyle=orthogonalEdgeStyle;rounded=0;orthogonalLoop=1;jettySize=auto;html=1;exitX=0;exitY=0.5;exitDx=0;exitDy=0;endSize=2;startSize=2;strokeColor=#FF8000;" parent="1" source="WBZ4sOTp23pTqwXeyS6A-52" target="WBZ4sOTp23pTqwXeyS6A-83" edge="1">
          <mxGeometry relative="1" as="geometry">
            <Array as="points">
              <mxPoint x="-50" y="-242" />
              <mxPoint x="-50" y="-84" />
            </Array>
          </mxGeometry>
        </mxCell>
        <mxCell id="WBZ4sOTp23pTqwXeyS6A-79" style="edgeStyle=elbowEdgeStyle;rounded=0;orthogonalLoop=1;jettySize=auto;html=1;exitX=0;exitY=0.5;exitDx=0;exitDy=0;entryX=0.997;entryY=0.406;entryDx=0;entryDy=0;endArrow=none;endFill=0;startArrow=classic;startFill=1;endSize=2;startSize=2;fontColor=#143642;strokeColor=#FF0080;fillColor=#FAE5C7;sketch=0;entryPerimeter=0;" parent="1" source="WBZ4sOTp23pTqwXeyS6A-66" target="WBZ4sOTp23pTqwXeyS6A-2" edge="1">
          <mxGeometry relative="1" as="geometry">
            <Array as="points">
              <mxPoint x="150" y="-10" />
              <mxPoint x="140" y="-10" />
              <mxPoint x="150" y="-10" />
              <mxPoint x="160" y="-10" />
            </Array>
          </mxGeometry>
        </mxCell>
        <mxCell id="OMGFsxL6FJG4bvum0Mdm-21" value="" style="rounded=0;whiteSpace=wrap;html=1;fontColor=#ffffff;fillColor=#fa6800;strokeColor=none;opacity=40;" parent="1" vertex="1">
          <mxGeometry x="-40" y="-480" width="160" height="175" as="geometry" />
        </mxCell>
        <mxCell id="OMGFsxL6FJG4bvum0Mdm-15" value="User_Lessons" style="swimlane;fontStyle=0;childLayout=stackLayout;horizontal=1;startSize=26;fillColor=#f8cecc;horizontalStack=0;resizeParent=1;resizeParentMax=0;resizeLast=0;collapsible=1;marginBottom=0;strokeColor=#b85450;" parent="1" vertex="1">
          <mxGeometry x="-36" y="-473" width="150" height="156" as="geometry">
            <mxRectangle x="-200" y="-418" width="60" height="26" as="alternateBounds" />
          </mxGeometry>
        </mxCell>
        <mxCell id="OMGFsxL6FJG4bvum0Mdm-16" value="id" style="text;strokeColor=#666666;fillColor=#f5f5f5;align=left;verticalAlign=top;spacingLeft=4;spacingRight=4;overflow=hidden;rotatable=0;points=[[0,0.5],[1,0.5]];portConstraint=eastwest;gradientColor=#E6E6E6;" parent="OMGFsxL6FJG4bvum0Mdm-15" vertex="1">
          <mxGeometry y="26" width="150" height="26" as="geometry" />
        </mxCell>
        <mxCell id="OMGFsxL6FJG4bvum0Mdm-17" value="time" style="text;strokeColor=none;fillColor=#ffffff;align=left;verticalAlign=top;spacingLeft=4;spacingRight=4;overflow=hidden;rotatable=0;points=[[0,0.5],[1,0.5]];portConstraint=eastwest;gradientColor=none;" parent="OMGFsxL6FJG4bvum0Mdm-15" vertex="1">
          <mxGeometry y="52" width="150" height="26" as="geometry" />
        </mxCell>
        <mxCell id="OMGFsxL6FJG4bvum0Mdm-18" value="isCompleted" style="text;strokeColor=none;fillColor=#ffffff;align=left;verticalAlign=top;spacingLeft=4;spacingRight=4;overflow=hidden;rotatable=0;points=[[0,0.5],[1,0.5]];portConstraint=eastwest;gradientColor=none;" parent="OMGFsxL6FJG4bvum0Mdm-15" vertex="1">
          <mxGeometry y="78" width="150" height="26" as="geometry" />
        </mxCell>
        <mxCell id="OMGFsxL6FJG4bvum0Mdm-19" value="user_id" style="text;strokeColor=#d6b656;fillColor=#fff2cc;align=left;verticalAlign=top;spacingLeft=4;spacingRight=4;overflow=hidden;rotatable=0;points=[[0,0.5],[1,0.5]];portConstraint=eastwest;gradientColor=#FFF9E3;" parent="OMGFsxL6FJG4bvum0Mdm-15" vertex="1">
          <mxGeometry y="104" width="150" height="26" as="geometry" />
        </mxCell>
        <mxCell id="OMGFsxL6FJG4bvum0Mdm-20" value="lesson_id" style="text;strokeColor=#d6b656;fillColor=#fff2cc;align=left;verticalAlign=top;spacingLeft=4;spacingRight=4;overflow=hidden;rotatable=0;points=[[0,0.5],[1,0.5]];portConstraint=eastwest;gradientColor=#FFF9E3;" parent="OMGFsxL6FJG4bvum0Mdm-15" vertex="1">
          <mxGeometry y="130" width="150" height="26" as="geometry" />
        </mxCell>
        <mxCell id="OMGFsxL6FJG4bvum0Mdm-22" style="edgeStyle=orthogonalEdgeStyle;rounded=0;sketch=0;orthogonalLoop=1;jettySize=auto;html=1;exitX=1;exitY=0.5;exitDx=0;exitDy=0;entryX=0;entryY=0.5;entryDx=0;entryDy=0;startArrow=classic;startFill=1;startSize=2;endArrow=none;endFill=0;endSize=2;fillColor=#FAE5C7;fontColor=#143642;strokeColor=#FF0000;" parent="1" source="WYEmnUTY5Pb3nIBCFr9V-35" target="WBZ4sOTp23pTqwXeyS6A-87" edge="1">
          <mxGeometry relative="1" as="geometry">
            <Array as="points">
              <mxPoint x="150" y="-301" />
              <mxPoint x="150" y="-374" />
            </Array>
          </mxGeometry>
        </mxCell>
        <mxCell id="WYEmnUTY5Pb3nIBCFr9V-32" value="User_Courses" style="swimlane;fontStyle=0;childLayout=stackLayout;horizontal=1;startSize=26;fillColor=#f8cecc;horizontalStack=0;resizeParent=1;resizeParentMax=0;resizeLast=0;collapsible=1;marginBottom=0;strokeColor=#b85450;" parent="1" vertex="1">
          <mxGeometry x="-206" y="-390" width="150" height="104" as="geometry">
            <mxRectangle x="-200" y="-418" width="60" height="26" as="alternateBounds" />
          </mxGeometry>
        </mxCell>
        <mxCell id="WYEmnUTY5Pb3nIBCFr9V-33" value="id" style="text;strokeColor=#666666;fillColor=#f5f5f5;align=left;verticalAlign=top;spacingLeft=4;spacingRight=4;overflow=hidden;rotatable=0;points=[[0,0.5],[1,0.5]];portConstraint=eastwest;gradientColor=#E6E6E6;" parent="WYEmnUTY5Pb3nIBCFr9V-32" vertex="1">
          <mxGeometry y="26" width="150" height="26" as="geometry" />
        </mxCell>
        <mxCell id="WYEmnUTY5Pb3nIBCFr9V-34" value="user_id" style="text;strokeColor=#d6b656;fillColor=#fff2cc;align=left;verticalAlign=top;spacingLeft=4;spacingRight=4;overflow=hidden;rotatable=0;points=[[0,0.5],[1,0.5]];portConstraint=eastwest;gradientColor=#FFF9E3;" parent="WYEmnUTY5Pb3nIBCFr9V-32" vertex="1">
          <mxGeometry y="52" width="150" height="26" as="geometry" />
        </mxCell>
        <mxCell id="WYEmnUTY5Pb3nIBCFr9V-35" value="course_id" style="text;strokeColor=#d6b656;fillColor=#fff2cc;align=left;verticalAlign=top;spacingLeft=4;spacingRight=4;overflow=hidden;rotatable=0;points=[[0,0.5],[1,0.5]];portConstraint=eastwest;gradientColor=#FFF9E3;" parent="WYEmnUTY5Pb3nIBCFr9V-32" vertex="1">
          <mxGeometry y="78" width="150" height="26" as="geometry" />
        </mxCell>
        <mxCell id="OMGFsxL6FJG4bvum0Mdm-23" value="" style="group" parent="1" vertex="1" connectable="0">
          <mxGeometry x="-640" y="-10" width="344" height="631" as="geometry" />
        </mxCell>
        <mxCell id="IU5A_lCc43EPzs8Wn4nt-96" value="&lt;h1&gt;RELEASE 1.0.1&amp;nbsp;&lt;/h1&gt;&lt;p&gt;The first iteration to be a functional product&lt;/p&gt;" style="text;html=1;strokeColor=none;fillColor=none;spacing=5;spacingTop=-20;whiteSpace=wrap;overflow=hidden;rounded=0;fontColor=#000000;" parent="OMGFsxL6FJG4bvum0Mdm-23" vertex="1">
          <mxGeometry x="149" y="31" width="190" height="120" as="geometry" />
        </mxCell>
        <mxCell id="IU5A_lCc43EPzs8Wn4nt-97" value="" style="rounded=0;whiteSpace=wrap;html=1;fontColor=#ffffff;strokeColor=none;fillColor=#fa6800;opacity=40;" parent="OMGFsxL6FJG4bvum0Mdm-23" vertex="1">
          <mxGeometry x="79" y="1" width="60" height="60" as="geometry" />
        </mxCell>
        <mxCell id="IU5A_lCc43EPzs8Wn4nt-118" value="" style="rounded=0;whiteSpace=wrap;html=1;fontColor=#ffffff;strokeColor=none;fillColor=#6a00ff;opacity=40;" parent="OMGFsxL6FJG4bvum0Mdm-23" vertex="1">
          <mxGeometry x="79" y="161" width="60" height="60" as="geometry" />
        </mxCell>
        <mxCell id="IU5A_lCc43EPzs8Wn4nt-119" value="&lt;h1&gt;RELEASE 1.0.2&amp;nbsp;&lt;/h1&gt;&lt;p&gt;Implementation of exam system, equipment and news system&lt;br&gt;&lt;/p&gt;" style="text;html=1;strokeColor=none;fillColor=none;spacing=5;spacingTop=-20;whiteSpace=wrap;overflow=hidden;rounded=0;fontColor=#000000;" parent="OMGFsxL6FJG4bvum0Mdm-23" vertex="1">
          <mxGeometry x="149" y="191" width="190" height="120" as="geometry" />
        </mxCell>
        <mxCell id="IU5A_lCc43EPzs8Wn4nt-124" value="&lt;font style=&quot;font-size: 14px&quot; color=&quot;#666666&quot;&gt;DESIRABLE&lt;/font&gt;" style="text;html=1;strokeColor=none;fillColor=none;align=left;verticalAlign=middle;whiteSpace=wrap;rounded=0;fontColor=#ffffff;opacity=40;" parent="OMGFsxL6FJG4bvum0Mdm-23" vertex="1">
          <mxGeometry x="152" y="176" width="100" height="20" as="geometry" />
        </mxCell>
        <mxCell id="IU5A_lCc43EPzs8Wn4nt-127" value="&lt;font style=&quot;font-size: 14px&quot; color=&quot;#666666&quot;&gt;AMAZING&lt;/font&gt;" style="text;html=1;strokeColor=none;fillColor=none;align=left;verticalAlign=middle;whiteSpace=wrap;rounded=0;fontColor=#ffffff;opacity=40;" parent="OMGFsxL6FJG4bvum0Mdm-23" vertex="1">
          <mxGeometry x="152" y="336" width="100" height="20" as="geometry" />
        </mxCell>
        <mxCell id="IU5A_lCc43EPzs8Wn4nt-128" value="" style="rounded=0;whiteSpace=wrap;html=1;fontColor=#ffffff;strokeColor=#6D1F00;fillColor=#a0522d;opacity=40;" parent="OMGFsxL6FJG4bvum0Mdm-23" vertex="1">
          <mxGeometry x="79" y="321" width="60" height="60" as="geometry" />
        </mxCell>
        <mxCell id="IU5A_lCc43EPzs8Wn4nt-129" value="&lt;h1&gt;RELEASE 1.0.3&amp;nbsp;&lt;/h1&gt;&lt;p&gt;Implementation of communication system between campers, tutors and teachers&lt;/p&gt;" style="text;html=1;strokeColor=none;fillColor=none;spacing=5;spacingTop=-20;whiteSpace=wrap;overflow=hidden;rounded=0;fontColor=#000000;" parent="OMGFsxL6FJG4bvum0Mdm-23" vertex="1">
          <mxGeometry x="149" y="351" width="190" height="120" as="geometry" />
        </mxCell>
        <mxCell id="IU5A_lCc43EPzs8Wn4nt-130" value="&lt;meta charset=&quot;utf-8&quot; style=&quot;font-size: 44px;&quot;&gt;&lt;span style=&quot;color: rgb(0, 0, 0); font-size: 44px; font-style: normal; font-weight: 400; letter-spacing: normal; text-align: left; text-indent: 0px; text-transform: none; word-spacing: 0px; background-color: rgb(248, 249, 250); display: inline; float: none;&quot;&gt;DB models&lt;/span&gt;" style="text;whiteSpace=wrap;html=1;rotation=-90;fontFamily=Georgia;fontSize=44;" parent="OMGFsxL6FJG4bvum0Mdm-23" vertex="1">
          <mxGeometry x="-75" y="75" width="220" height="70" as="geometry" />
        </mxCell>
        <mxCell id="IU5A_lCc43EPzs8Wn4nt-131" value="" style="rounded=0;whiteSpace=wrap;html=1;fontFamily=Georgia;fontSize=44;fontColor=#333333;opacity=40;align=left;strokeColor=none;fillColor=#BFBFBF;" parent="OMGFsxL6FJG4bvum0Mdm-23" vertex="1">
          <mxGeometry x="59" y="1" width="10" height="620" as="geometry" />
        </mxCell>
        <mxCell id="IU5A_lCc43EPzs8Wn4nt-136" value="&lt;font style=&quot;font-size: 14px&quot; color=&quot;#666666&quot;&gt;IDYLLIC&lt;/font&gt;" style="text;html=1;strokeColor=none;fillColor=none;align=left;verticalAlign=middle;whiteSpace=wrap;rounded=0;fontColor=#ffffff;opacity=40;" parent="OMGFsxL6FJG4bvum0Mdm-23" vertex="1">
          <mxGeometry x="157" y="496" width="100" height="20" as="geometry" />
        </mxCell>
        <mxCell id="IU5A_lCc43EPzs8Wn4nt-137" value="" style="rounded=0;whiteSpace=wrap;html=1;fontColor=#ffffff;strokeColor=#A50040;fillColor=#d80073;opacity=40;" parent="OMGFsxL6FJG4bvum0Mdm-23" vertex="1">
          <mxGeometry x="84" y="481" width="60" height="60" as="geometry" />
        </mxCell>
        <mxCell id="IU5A_lCc43EPzs8Wn4nt-138" value="&lt;h1&gt;RELEASE 1.0.4&amp;nbsp;&lt;/h1&gt;&lt;p&gt;Implementation of the subscription, payment and billing system&lt;/p&gt;" style="text;html=1;strokeColor=none;fillColor=none;spacing=5;spacingTop=-20;whiteSpace=wrap;overflow=hidden;rounded=0;fontColor=#000000;" parent="OMGFsxL6FJG4bvum0Mdm-23" vertex="1">
          <mxGeometry x="154" y="511" width="190" height="120" as="geometry" />
        </mxCell>
        <mxCell id="IU5A_lCc43EPzs8Wn4nt-14" value="Orders" style="swimlane;fontStyle=0;childLayout=stackLayout;horizontal=1;startSize=26;fillColor=#e1d5e7;horizontalStack=0;resizeParent=1;resizeParentMax=0;resizeLast=0;collapsible=1;marginBottom=0;strokeColor=#9673a6;" parent="1" vertex="1">
          <mxGeometry x="-410" y="-244" width="140" height="156" as="geometry">
            <mxRectangle x="100" y="60" width="60" height="26" as="alternateBounds" />
          </mxGeometry>
        </mxCell>
        <mxCell id="IU5A_lCc43EPzs8Wn4nt-15" value="id" style="text;strokeColor=#666666;fillColor=#f5f5f5;align=left;verticalAlign=top;spacingLeft=4;spacingRight=4;overflow=hidden;rotatable=0;points=[[0,0.5],[1,0.5]];portConstraint=eastwest;gradientColor=#E6E6E6;" parent="IU5A_lCc43EPzs8Wn4nt-14" vertex="1">
          <mxGeometry y="26" width="140" height="26" as="geometry" />
        </mxCell>
        <mxCell id="IU5A_lCc43EPzs8Wn4nt-16" value="order_number" style="text;strokeColor=none;fillColor=#ffffff;align=left;verticalAlign=top;spacingLeft=4;spacingRight=4;overflow=hidden;rotatable=0;points=[[0,0.5],[1,0.5]];portConstraint=eastwest;" parent="IU5A_lCc43EPzs8Wn4nt-14" vertex="1">
          <mxGeometry y="52" width="140" height="26" as="geometry" />
        </mxCell>
        <mxCell id="IU5A_lCc43EPzs8Wn4nt-18" value="state" style="text;strokeColor=none;fillColor=#ffffff;align=left;verticalAlign=top;spacingLeft=4;spacingRight=4;overflow=hidden;rotatable=0;points=[[0,0.5],[1,0.5]];portConstraint=eastwest;gradientColor=none;" parent="IU5A_lCc43EPzs8Wn4nt-14" vertex="1">
          <mxGeometry y="78" width="140" height="26" as="geometry" />
        </mxCell>
        <mxCell id="IU5A_lCc43EPzs8Wn4nt-19" value="user_id" style="text;strokeColor=#d6b656;fillColor=#fff2cc;align=left;verticalAlign=top;spacingLeft=4;spacingRight=4;overflow=hidden;rotatable=0;points=[[0,0.5],[1,0.5]];portConstraint=eastwest;gradientColor=#FFF9E3;" parent="IU5A_lCc43EPzs8Wn4nt-14" vertex="1">
          <mxGeometry y="104" width="140" height="26" as="geometry" />
        </mxCell>
        <mxCell id="IU5A_lCc43EPzs8Wn4nt-30" value="subscription_id" style="text;strokeColor=#d6b656;fillColor=#fff2cc;align=left;verticalAlign=top;spacingLeft=4;spacingRight=4;overflow=hidden;rotatable=0;points=[[0,0.5],[1,0.5]];portConstraint=eastwest;gradientColor=#FFF9E3;" parent="IU5A_lCc43EPzs8Wn4nt-14" vertex="1">
          <mxGeometry y="130" width="140" height="26" as="geometry" />
        </mxCell>
        <mxCell id="IU5A_lCc43EPzs8Wn4nt-1" value="Subscriptions" style="swimlane;fontStyle=0;childLayout=stackLayout;horizontal=1;startSize=26;fillColor=#6a00ff;horizontalStack=0;resizeParent=1;resizeParentMax=0;resizeLast=0;collapsible=1;marginBottom=0;strokeColor=#3700CC;fontColor=#ffffff;" parent="1" vertex="1">
          <mxGeometry x="-410" y="-451" width="140" height="156" as="geometry">
            <mxRectangle x="100" y="60" width="60" height="26" as="alternateBounds" />
          </mxGeometry>
        </mxCell>
        <mxCell id="IU5A_lCc43EPzs8Wn4nt-2" value="id" style="text;strokeColor=#666666;fillColor=#f5f5f5;align=left;verticalAlign=top;spacingLeft=4;spacingRight=4;overflow=hidden;rotatable=0;points=[[0,0.5],[1,0.5]];portConstraint=eastwest;gradientColor=#E6E6E6;" parent="IU5A_lCc43EPzs8Wn4nt-1" vertex="1">
          <mxGeometry y="26" width="140" height="26" as="geometry" />
        </mxCell>
        <mxCell id="IU5A_lCc43EPzs8Wn4nt-3" value="name" style="text;strokeColor=none;fillColor=#ffffff;align=left;verticalAlign=top;spacingLeft=4;spacingRight=4;overflow=hidden;rotatable=0;points=[[0,0.5],[1,0.5]];portConstraint=eastwest;" parent="IU5A_lCc43EPzs8Wn4nt-1" vertex="1">
          <mxGeometry y="52" width="140" height="26" as="geometry" />
        </mxCell>
        <mxCell id="IU5A_lCc43EPzs8Wn4nt-4" value="image" style="text;strokeColor=none;fillColor=#ffffff;align=left;verticalAlign=top;spacingLeft=4;spacingRight=4;overflow=hidden;rotatable=0;points=[[0,0.5],[1,0.5]];portConstraint=eastwest;" parent="IU5A_lCc43EPzs8Wn4nt-1" vertex="1">
          <mxGeometry y="78" width="140" height="26" as="geometry" />
        </mxCell>
        <mxCell id="IU5A_lCc43EPzs8Wn4nt-7" value="details" style="text;strokeColor=none;fillColor=#ffffff;align=left;verticalAlign=top;spacingLeft=4;spacingRight=4;overflow=hidden;rotatable=0;points=[[0,0.5],[1,0.5]];portConstraint=eastwest;" parent="IU5A_lCc43EPzs8Wn4nt-1" vertex="1">
          <mxGeometry y="104" width="140" height="26" as="geometry" />
        </mxCell>
        <mxCell id="IU5A_lCc43EPzs8Wn4nt-6" value="price" style="text;strokeColor=none;fillColor=#ffffff;align=left;verticalAlign=top;spacingLeft=4;spacingRight=4;overflow=hidden;rotatable=0;points=[[0,0.5],[1,0.5]];portConstraint=eastwest;" parent="IU5A_lCc43EPzs8Wn4nt-1" vertex="1">
          <mxGeometry y="130" width="140" height="26" as="geometry" />
        </mxCell>
        <mxCell id="IU5A_lCc43EPzs8Wn4nt-20" value="Billings" style="swimlane;fontStyle=0;childLayout=stackLayout;horizontal=1;startSize=26;fillColor=#e1d5e7;horizontalStack=0;resizeParent=1;resizeParentMax=0;resizeLast=0;collapsible=1;marginBottom=0;strokeColor=#9673a6;" parent="1" vertex="1">
          <mxGeometry x="-602" y="-374" width="140" height="130" as="geometry">
            <mxRectangle x="100" y="60" width="60" height="26" as="alternateBounds" />
          </mxGeometry>
        </mxCell>
        <mxCell id="IU5A_lCc43EPzs8Wn4nt-21" value="id" style="text;strokeColor=#666666;fillColor=#f5f5f5;align=left;verticalAlign=top;spacingLeft=4;spacingRight=4;overflow=hidden;rotatable=0;points=[[0,0.5],[1,0.5]];portConstraint=eastwest;gradientColor=#E6E6E6;" parent="IU5A_lCc43EPzs8Wn4nt-20" vertex="1">
          <mxGeometry y="26" width="140" height="26" as="geometry" />
        </mxCell>
        <mxCell id="IU5A_lCc43EPzs8Wn4nt-22" value="billing_number" style="text;strokeColor=none;fillColor=#ffffff;align=left;verticalAlign=top;spacingLeft=4;spacingRight=4;overflow=hidden;rotatable=0;points=[[0,0.5],[1,0.5]];portConstraint=eastwest;" parent="IU5A_lCc43EPzs8Wn4nt-20" vertex="1">
          <mxGeometry y="52" width="140" height="26" as="geometry" />
        </mxCell>
        <mxCell id="IU5A_lCc43EPzs8Wn4nt-23" value="order_id" style="text;strokeColor=#d6b656;fillColor=#fff2cc;align=left;verticalAlign=top;spacingLeft=4;spacingRight=4;overflow=hidden;rotatable=0;points=[[0,0.5],[1,0.5]];portConstraint=eastwest;gradientColor=#FFF9E3;" parent="IU5A_lCc43EPzs8Wn4nt-20" vertex="1">
          <mxGeometry y="78" width="140" height="26" as="geometry" />
        </mxCell>
        <mxCell id="IU5A_lCc43EPzs8Wn4nt-41" value="paydment_method_id" style="text;strokeColor=#d6b656;fillColor=#fff2cc;align=left;verticalAlign=top;spacingLeft=4;spacingRight=4;overflow=hidden;rotatable=0;points=[[0,0.5],[1,0.5]];portConstraint=eastwest;gradientColor=#FFF9E3;" parent="IU5A_lCc43EPzs8Wn4nt-20" vertex="1">
          <mxGeometry y="104" width="140" height="26" as="geometry" />
        </mxCell>
        <mxCell id="IU5A_lCc43EPzs8Wn4nt-42" value="Payments Methods" style="swimlane;fontStyle=0;childLayout=stackLayout;horizontal=1;startSize=26;fillColor=#e1d5e7;horizontalStack=0;resizeParent=1;resizeParentMax=0;resizeLast=0;collapsible=1;marginBottom=0;strokeColor=#9673a6;" parent="1" vertex="1">
          <mxGeometry x="-602" y="-225" width="140" height="156" as="geometry">
            <mxRectangle x="100" y="60" width="60" height="26" as="alternateBounds" />
          </mxGeometry>
        </mxCell>
        <mxCell id="IU5A_lCc43EPzs8Wn4nt-43" value="id" style="text;strokeColor=#666666;fillColor=#f5f5f5;align=left;verticalAlign=top;spacingLeft=4;spacingRight=4;overflow=hidden;rotatable=0;points=[[0,0.5],[1,0.5]];portConstraint=eastwest;gradientColor=#E6E6E6;" parent="IU5A_lCc43EPzs8Wn4nt-42" vertex="1">
          <mxGeometry y="26" width="140" height="26" as="geometry" />
        </mxCell>
        <mxCell id="IU5A_lCc43EPzs8Wn4nt-44" value="name" style="text;strokeColor=none;fillColor=#ffffff;align=left;verticalAlign=top;spacingLeft=4;spacingRight=4;overflow=hidden;rotatable=0;points=[[0,0.5],[1,0.5]];portConstraint=eastwest;" parent="IU5A_lCc43EPzs8Wn4nt-42" vertex="1">
          <mxGeometry y="52" width="140" height="26" as="geometry" />
        </mxCell>
        <mxCell id="IU5A_lCc43EPzs8Wn4nt-57" value="description" style="text;strokeColor=none;fillColor=#ffffff;align=left;verticalAlign=top;spacingLeft=4;spacingRight=4;overflow=hidden;rotatable=0;points=[[0,0.5],[1,0.5]];portConstraint=eastwest;" parent="IU5A_lCc43EPzs8Wn4nt-42" vertex="1">
          <mxGeometry y="78" width="140" height="26" as="geometry" />
        </mxCell>
        <mxCell id="IU5A_lCc43EPzs8Wn4nt-47" value="image" style="text;strokeColor=none;fillColor=#ffffff;align=left;verticalAlign=top;spacingLeft=4;spacingRight=4;overflow=hidden;rotatable=0;points=[[0,0.5],[1,0.5]];portConstraint=eastwest;" parent="IU5A_lCc43EPzs8Wn4nt-42" vertex="1">
          <mxGeometry y="104" width="140" height="26" as="geometry" />
        </mxCell>
        <mxCell id="IU5A_lCc43EPzs8Wn4nt-48" value="type" style="text;strokeColor=none;fillColor=#ffffff;align=left;verticalAlign=top;spacingLeft=4;spacingRight=4;overflow=hidden;rotatable=0;points=[[0,0.5],[1,0.5]];portConstraint=eastwest;" parent="IU5A_lCc43EPzs8Wn4nt-42" vertex="1">
          <mxGeometry y="130" width="140" height="26" as="geometry" />
        </mxCell>
        <mxCell id="OMGFsxL6FJG4bvum0Mdm-24" style="edgeStyle=orthogonalEdgeStyle;rounded=0;sketch=0;orthogonalLoop=1;jettySize=auto;html=1;exitX=0;exitY=0.5;exitDx=0;exitDy=0;entryX=-0.007;entryY=0.269;entryDx=0;entryDy=0;entryPerimeter=0;startArrow=classic;startFill=1;startSize=2;endArrow=none;endFill=0;endSize=2;strokeColor=#FF0000;fillColor=#FAE5C7;fontColor=#143642;" parent="1" source="OMGFsxL6FJG4bvum0Mdm-19" target="WBZ4sOTp23pTqwXeyS6A-2" edge="1">
          <mxGeometry relative="1" as="geometry">
            <Array as="points">
              <mxPoint x="-50" y="-356" />
              <mxPoint x="-50" y="-29" />
            </Array>
          </mxGeometry>
        </mxCell>
        <mxCell id="WYEmnUTY5Pb3nIBCFr9V-81" value="User_Games" style="swimlane;fontStyle=0;childLayout=stackLayout;horizontal=1;startSize=26;fillColor=#cce5ff;horizontalStack=0;resizeParent=1;resizeParentMax=0;resizeLast=0;collapsible=1;marginBottom=0;strokeColor=#A9C4EB;" parent="1" vertex="1">
          <mxGeometry x="866" y="-756" width="140" height="204" as="geometry">
            <mxRectangle x="100" y="60" width="60" height="26" as="alternateBounds" />
          </mxGeometry>
        </mxCell>
        <mxCell id="WYEmnUTY5Pb3nIBCFr9V-82" value="id" style="text;strokeColor=#666666;fillColor=#f5f5f5;align=left;verticalAlign=top;spacingLeft=4;spacingRight=4;overflow=hidden;rotatable=0;points=[[0,0.5],[1,0.5]];portConstraint=eastwest;gradientColor=#E6E6E6;" parent="WYEmnUTY5Pb3nIBCFr9V-81" vertex="1">
          <mxGeometry y="26" width="140" height="26" as="geometry" />
        </mxCell>
        <mxCell id="WYEmnUTY5Pb3nIBCFr9V-83" value="ratting" style="text;strokeColor=none;fillColor=#ffffff;align=left;verticalAlign=top;spacingLeft=4;spacingRight=4;overflow=hidden;rotatable=0;points=[[0,0.5],[1,0.5]];portConstraint=eastwest;" parent="WYEmnUTY5Pb3nIBCFr9V-81" vertex="1">
          <mxGeometry y="52" width="140" height="26" as="geometry" />
        </mxCell>
        <mxCell id="WYEmnUTY5Pb3nIBCFr9V-86" value="comment" style="text;strokeColor=none;fillColor=#ffffff;align=left;verticalAlign=top;spacingLeft=4;spacingRight=4;overflow=hidden;rotatable=0;points=[[0,0.5],[1,0.5]];portConstraint=eastwest;" parent="WYEmnUTY5Pb3nIBCFr9V-81" vertex="1">
          <mxGeometry y="78" width="140" height="26" as="geometry" />
        </mxCell>
        <mxCell id="bOIeK9XrqMuyP5t5MUJa-2" value="token" style="text;strokeColor=none;fillColor=#ffffff;align=left;verticalAlign=top;spacingLeft=4;spacingRight=4;overflow=hidden;rotatable=0;points=[[0,0.5],[1,0.5]];portConstraint=eastwest;" vertex="1" parent="WYEmnUTY5Pb3nIBCFr9V-81">
          <mxGeometry y="104" width="140" height="26" as="geometry" />
        </mxCell>
        <mxCell id="bOIeK9XrqMuyP5t5MUJa-3" value="score" style="text;strokeColor=none;fillColor=#ffffff;align=left;verticalAlign=top;spacingLeft=4;spacingRight=4;overflow=hidden;rotatable=0;points=[[0,0.5],[1,0.5]];portConstraint=eastwest;" vertex="1" parent="WYEmnUTY5Pb3nIBCFr9V-81">
          <mxGeometry y="130" width="140" height="26" as="geometry" />
        </mxCell>
        <mxCell id="WYEmnUTY5Pb3nIBCFr9V-84" value="user_id" style="text;strokeColor=#d6b656;fillColor=#fff2cc;align=left;verticalAlign=top;spacingLeft=4;spacingRight=4;overflow=hidden;rotatable=0;points=[[0,0.5],[1,0.5]];portConstraint=eastwest;gradientColor=#ffd966;" parent="WYEmnUTY5Pb3nIBCFr9V-81" vertex="1">
          <mxGeometry y="156" width="140" height="24" as="geometry" />
        </mxCell>
        <mxCell id="WYEmnUTY5Pb3nIBCFr9V-85" value="game_id" style="text;strokeColor=#d6b656;fillColor=#fff2cc;align=left;verticalAlign=top;spacingLeft=4;spacingRight=4;overflow=hidden;rotatable=0;points=[[0,0.5],[1,0.5]];portConstraint=eastwest;gradientColor=#ffd966;" parent="WYEmnUTY5Pb3nIBCFr9V-81" vertex="1">
          <mxGeometry y="180" width="140" height="24" as="geometry" />
        </mxCell>
        <mxCell id="WBZ4sOTp23pTqwXeyS6A-104" value="Attachments" style="swimlane;fontStyle=0;childLayout=stackLayout;horizontal=1;startSize=26;fillColor=#76608a;horizontalStack=0;resizeParent=1;resizeParentMax=0;resizeLast=0;collapsible=1;marginBottom=0;strokeColor=#432D57;fontColor=#ffffff;" parent="1" vertex="1">
          <mxGeometry x="620" y="-320" width="140" height="180" as="geometry">
            <mxRectangle x="100" y="60" width="60" height="26" as="alternateBounds" />
          </mxGeometry>
        </mxCell>
        <mxCell id="WBZ4sOTp23pTqwXeyS6A-105" value="id" style="text;strokeColor=#666666;fillColor=#f5f5f5;align=left;verticalAlign=top;spacingLeft=4;spacingRight=4;overflow=hidden;rotatable=0;points=[[0,0.5],[1,0.5]];portConstraint=eastwest;gradientColor=#E6E6E6;" parent="WBZ4sOTp23pTqwXeyS6A-104" vertex="1">
          <mxGeometry y="26" width="140" height="26" as="geometry" />
        </mxCell>
        <mxCell id="WBZ4sOTp23pTqwXeyS6A-106" value="name" style="text;strokeColor=none;fillColor=#ffffff;align=left;verticalAlign=top;spacingLeft=4;spacingRight=4;overflow=hidden;rotatable=0;points=[[0,0.5],[1,0.5]];portConstraint=eastwest;" parent="WBZ4sOTp23pTqwXeyS6A-104" vertex="1">
          <mxGeometry y="52" width="140" height="26" as="geometry" />
        </mxCell>
        <mxCell id="WBZ4sOTp23pTqwXeyS6A-107" value="description" style="text;strokeColor=none;fillColor=#ffffff;align=left;verticalAlign=top;spacingLeft=4;spacingRight=4;overflow=hidden;rotatable=0;points=[[0,0.5],[1,0.5]];portConstraint=eastwest;" parent="WBZ4sOTp23pTqwXeyS6A-104" vertex="1">
          <mxGeometry y="78" width="140" height="24" as="geometry" />
        </mxCell>
        <mxCell id="WBZ4sOTp23pTqwXeyS6A-109" value="type" style="text;strokeColor=none;fillColor=#ffffff;align=left;verticalAlign=top;spacingLeft=4;spacingRight=4;overflow=hidden;rotatable=0;points=[[0,0.5],[1,0.5]];portConstraint=eastwest;" parent="WBZ4sOTp23pTqwXeyS6A-104" vertex="1">
          <mxGeometry y="102" width="140" height="26" as="geometry" />
        </mxCell>
        <mxCell id="WBZ4sOTp23pTqwXeyS6A-110" value="file" style="text;strokeColor=none;fillColor=#ffffff;align=left;verticalAlign=top;spacingLeft=4;spacingRight=4;overflow=hidden;rotatable=0;points=[[0,0.5],[1,0.5]];portConstraint=eastwest;" parent="WBZ4sOTp23pTqwXeyS6A-104" vertex="1">
          <mxGeometry y="128" width="140" height="26" as="geometry" />
        </mxCell>
        <mxCell id="bOIeK9XrqMuyP5t5MUJa-1" value="parent_id" style="text;strokeColor=#d6b656;fillColor=#fff2cc;align=left;verticalAlign=top;spacingLeft=4;spacingRight=4;overflow=hidden;rotatable=0;points=[[0,0.5],[1,0.5]];portConstraint=eastwest;gradientColor=#ffd966;" vertex="1" parent="WBZ4sOTp23pTqwXeyS6A-104">
          <mxGeometry y="154" width="140" height="26" as="geometry" />
        </mxCell>
        <mxCell id="IU5A_lCc43EPzs8Wn4nt-70" value="News" style="swimlane;fontStyle=0;childLayout=stackLayout;horizontal=1;startSize=26;fillColor=#e3c800;horizontalStack=0;resizeParent=1;resizeParentMax=0;resizeLast=0;collapsible=1;marginBottom=0;strokeColor=#B09500;" parent="1" vertex="1">
          <mxGeometry x="650" y="-68" width="140" height="156" as="geometry">
            <mxRectangle x="100" y="60" width="60" height="26" as="alternateBounds" />
          </mxGeometry>
        </mxCell>
        <mxCell id="IU5A_lCc43EPzs8Wn4nt-71" value="id" style="text;strokeColor=#666666;fillColor=#f5f5f5;align=left;verticalAlign=top;spacingLeft=4;spacingRight=4;overflow=hidden;rotatable=0;points=[[0,0.5],[1,0.5]];portConstraint=eastwest;gradientColor=#E6E6E6;" parent="IU5A_lCc43EPzs8Wn4nt-70" vertex="1">
          <mxGeometry y="26" width="140" height="26" as="geometry" />
        </mxCell>
        <mxCell id="IU5A_lCc43EPzs8Wn4nt-72" value="title" style="text;strokeColor=none;fillColor=#ffffff;align=left;verticalAlign=top;spacingLeft=4;spacingRight=4;overflow=hidden;rotatable=0;points=[[0,0.5],[1,0.5]];portConstraint=eastwest;" parent="IU5A_lCc43EPzs8Wn4nt-70" vertex="1">
          <mxGeometry y="52" width="140" height="26" as="geometry" />
        </mxCell>
        <mxCell id="IU5A_lCc43EPzs8Wn4nt-75" value="subtitle" style="text;strokeColor=none;fillColor=#ffffff;align=left;verticalAlign=top;spacingLeft=4;spacingRight=4;overflow=hidden;rotatable=0;points=[[0,0.5],[1,0.5]];portConstraint=eastwest;" parent="IU5A_lCc43EPzs8Wn4nt-70" vertex="1">
          <mxGeometry y="78" width="140" height="26" as="geometry" />
        </mxCell>
        <mxCell id="IU5A_lCc43EPzs8Wn4nt-73" value="image" style="text;strokeColor=none;fillColor=#ffffff;align=left;verticalAlign=top;spacingLeft=4;spacingRight=4;overflow=hidden;rotatable=0;points=[[0,0.5],[1,0.5]];portConstraint=eastwest;" parent="IU5A_lCc43EPzs8Wn4nt-70" vertex="1">
          <mxGeometry y="104" width="140" height="26" as="geometry" />
        </mxCell>
        <mxCell id="IU5A_lCc43EPzs8Wn4nt-74" value="details" style="text;strokeColor=none;fillColor=#ffffff;align=left;verticalAlign=top;spacingLeft=4;spacingRight=4;overflow=hidden;rotatable=0;points=[[0,0.5],[1,0.5]];portConstraint=eastwest;" parent="IU5A_lCc43EPzs8Wn4nt-70" vertex="1">
          <mxGeometry y="130" width="140" height="26" as="geometry" />
        </mxCell>
      </root>
    </mxGraphModel>
  </diagram>
</mxfile>
